<svg xmlns="http://www.w3.org/2000/svg" width="962" height="993" viewBox="0 0 962 993">
<g>
<path d="M 0.14 439.25 C0.22,701.20 0.61,869.18 1.14,869.18 C1.15,869.18 1.16,869.14 1.17,869.04 C1.71,863.34 2.64,858.95 3.51,857.99 C4.30,857.11 4.90,854.83 4.82,852.92 C4.60,846.94 13.77,826.00 16.62,826.00 C17.34,826.00 18.44,825.05 19.06,823.88 C19.94,822.25 19.92,821.93 19.00,822.50 C16.00,824.36 20.44,818.81 28.31,810.89 C40.70,798.41 68.04,780.96 76.00,780.44 C77.93,780.31 80.09,780.16 80.81,780.10 C81.53,780.05 81.84,779.55 81.50,779.00 C81.16,778.45 81.78,778.00 82.88,778.00 C83.98,778.00 85.16,777.56 85.49,777.01 C85.85,776.44 85.34,776.24 84.30,776.54 C80.07,777.75 91.90,772.76 98.87,770.39 C103.06,768.97 107.40,767.46 108.50,767.04 C116.68,763.91 127.16,761.00 130.22,761.00 C132.23,761.00 134.16,760.55 134.50,760.00 C134.84,759.45 136.55,758.99 138.31,758.98 C140.24,758.98 141.01,758.66 140.26,758.18 C139.51,757.71 142.47,756.51 147.76,755.13 C158.69,752.30 164.48,750.72 174.00,747.95 C178.12,746.75 182.98,745.81 184.79,745.86 C186.83,745.91 188.30,745.38 188.65,744.47 C188.96,743.66 189.92,743.00 190.79,743.00 C191.65,743.00 193.74,742.59 195.43,742.09 C199.33,740.93 209.06,737.84 210.91,737.17 C211.86,736.83 212.07,737.08 211.54,737.93 C211.04,738.75 211.60,738.65 213.13,737.65 C214.55,736.72 217.00,736.24 219.25,736.45 C222.39,736.74 223.00,736.49 223.00,734.90 C223.00,732.99 223.30,732.85 228.10,732.49 C229.53,732.39 231.33,731.94 232.10,731.50 C233.23,730.86 233.26,730.96 232.25,732.05 C230.27,734.19 230.80,735.15 232.95,733.31 C234.02,732.39 234.67,731.27 234.39,730.82 C234.11,730.37 235.24,730.00 236.90,730.00 C238.55,730.00 241.57,728.88 243.60,727.50 C247.44,724.89 247.98,724.75 254.50,724.59 C257.58,724.52 258.47,724.12 258.38,722.84 C258.29,721.66 260.05,720.54 264.38,719.02 C271.80,716.41 288.32,709.21 296.43,705.04 C302.90,701.73 303.39,701.55 302.55,702.91 C301.87,704.01 306.76,703.60 307.78,702.47 C308.18,702.04 307.61,702.00 306.52,702.40 C304.73,703.05 304.75,702.89 306.83,700.68 C308.08,699.35 310.76,697.41 312.78,696.38 C317.61,693.91 325.61,688.99 335.63,682.33 C340.10,679.35 344.15,677.05 344.63,677.20 C346.26,677.74 353.00,672.84 353.00,671.12 C353.00,670.17 353.44,668.96 353.97,668.43 C354.55,667.85 354.97,651.95 355.03,628.02 L 355.13 588.57 L 351.08 583.53 C348.85,580.77 345.45,576.97 343.51,575.11 C341.58,573.24 340.00,571.34 340.00,570.88 C340.00,570.41 337.52,566.38 334.50,561.91 C331.48,557.44 329.00,552.94 329.00,551.89 C329.00,550.85 328.62,550.00 328.16,550.00 C326.65,550.00 317.78,531.46 317.89,528.54 C317.90,528.26 317.25,526.45 316.44,524.52 C315.63,522.58 315.22,521.00 315.52,521.00 C315.82,521.00 315.63,520.17 315.08,519.15 C314.54,518.14 313.86,516.23 313.57,514.90 C313.28,513.58 312.39,509.58 311.60,506.00 C309.00,494.29 307.63,479.11 308.92,476.27 C309.86,474.21 309.78,473.41 308.48,471.98 C307.21,470.57 306.86,467.39 306.70,455.86 C306.59,447.96 306.07,441.19 305.55,440.82 C305.03,440.45 303.86,440.54 302.94,441.03 C302.02,441.53 300.92,441.61 300.50,441.21 C300.07,440.82 300.26,441.51 300.90,442.75 C301.96,444.79 301.70,445.40 299.85,445.15 C299.49,445.10 298.64,445.72 297.97,446.53 C296.23,448.63 291.59,448.51 292.40,446.39 C292.85,445.24 292.59,444.94 291.51,445.36 C288.91,446.35 289.86,444.14 292.75,442.47 C295.18,441.06 293.98,441.18 290.21,442.72 C289.50,443.01 288.99,442.85 289.08,442.37 C289.50,440.08 288.87,438.84 287.55,439.34 C286.53,439.73 286.29,439.42 286.72,438.29 C287.09,437.32 286.93,436.92 286.31,437.31 C285.68,437.70 285.47,437.00 285.76,435.47 C286.02,434.11 285.76,433.00 285.18,433.00 C284.61,433.00 283.84,432.07 283.48,430.92 C283.11,429.78 282.53,429.14 282.18,429.49 C281.31,430.36 279.16,422.31 277.49,411.93 C275.41,398.96 270.42,378.26 265.23,361.00 C264.32,357.98 263.69,355.12 263.82,354.64 C263.96,354.17 263.58,353.20 262.98,352.48 C262.39,351.76 261.63,348.00 261.31,344.12 C260.98,340.23 260.33,337.30 259.86,337.59 C259.39,337.88 259.01,336.18 259.02,333.81 C259.03,330.66 259.29,329.90 260.00,331.00 C260.78,332.21 260.97,332.07 260.98,330.25 C260.99,329.01 260.44,327.99 259.75,327.98 C258.91,327.97 259.00,327.64 260.00,326.98 C261.17,326.22 261.22,325.82 260.25,325.19 C259.30,324.57 259.48,323.86 261.00,322.24 C263.37,319.69 268.72,319.93 272.03,322.74 C274.34,324.70 280.00,334.07 280.00,335.94 C280.00,336.60 280.67,337.82 281.50,338.64 C282.83,339.98 283.01,339.94 283.12,338.32 C283.18,337.32 283.14,335.85 283.03,335.05 C282.86,333.85 283.09,333.83 284.39,334.91 C285.59,335.90 285.71,336.67 284.91,338.16 C284.34,339.23 284.09,340.65 284.36,341.31 C284.62,341.96 284.88,341.60 284.94,340.50 C285.01,338.85 285.20,338.76 285.97,339.99 C286.67,341.10 286.84,340.78 286.62,338.74 C286.46,337.23 286.03,335.70 285.67,335.33 C285.30,334.97 285.00,333.37 285.00,331.77 C285.00,330.10 284.58,329.14 284.00,329.50 C283.45,329.84 283.00,329.68 283.00,329.14 C283.00,328.61 283.56,327.94 284.25,327.66 C285.19,327.28 285.13,326.89 284.00,326.09 C282.98,325.37 282.90,325.03 283.75,325.02 C284.44,325.01 285.00,324.13 285.00,323.06 C285.00,321.65 284.45,321.22 283.00,321.50 C281.22,321.84 281.00,321.35 281.00,316.88 C281.00,313.14 281.31,312.08 282.25,312.65 C282.94,313.08 282.71,312.22 281.75,310.75 C279.73,307.65 279.29,297.40 281.15,296.78 C281.94,296.52 281.76,295.56 280.56,293.73 C279.11,291.53 278.85,289.05 279.02,279.29 C279.24,266.92 277.85,250.28 276.03,243.50 C274.98,239.61 274.40,236.98 270.19,217.00 C265.97,196.99 264.18,176.69 266.32,173.28 C266.74,172.61 266.42,171.03 265.60,169.78 C264.42,167.95 264.24,165.18 264.71,155.78 C265.03,149.34 265.57,144.23 265.90,144.44 C266.23,144.64 266.61,142.13 266.74,138.86 C266.87,135.59 267.43,132.06 267.99,131.02 C268.55,129.98 269.00,127.95 269.00,126.50 C269.00,123.06 270.80,119.76 272.21,120.63 C272.97,121.10 273.14,120.23 272.74,117.82 C272.37,115.49 272.82,112.89 274.09,110.05 C275.14,107.70 276.00,105.36 276.00,104.84 C276.00,104.08 280.39,95.89 285.50,87.15 C288.36,82.26 301.50,65.86 306.06,61.50 C308.93,58.75 310.99,57.03 310.63,57.68 C310.20,58.44 311.06,58.32 312.98,57.36 C314.64,56.53 316.00,55.06 316.00,54.09 C316.00,52.16 331.01,40.47 337.25,37.54 C339.31,36.57 341.00,35.41 341.00,34.97 C341.00,34.53 343.97,32.45 347.59,30.34 C351.21,28.23 356.73,25.02 359.84,23.21 C362.95,21.41 367.52,19.00 370.00,17.87 C372.48,16.74 377.36,14.51 380.86,12.91 C384.36,11.31 387.96,10.00 388.86,9.99 C389.76,9.99 391.71,9.36 393.18,8.59 C396.45,6.88 407.60,4.21 419.00,2.41 C430.50,0.60 433.70,0.65 434.83,2.67 C435.65,4.13 436.16,4.17 438.90,3.04 C440.70,2.29 443.93,1.96 446.52,2.25 C449.21,2.55 451.00,2.35 451.00,1.74 C451.00,-1.09 493.12,4.99 496.85,8.36 C497.84,9.26 499.97,10.01 501.58,10.02 C503.83,10.03 504.16,10.25 503.00,11.00 C500.94,12.33 502.66,12.25 505.19,10.90 C506.80,10.04 507.07,10.08 506.46,11.07 C505.91,11.96 506.15,12.16 507.26,11.73 C509.24,10.97 515.49,12.63 517.24,14.38 C519.13,16.27 523.40,18.45 522.56,17.10 C521.46,15.32 523.29,15.79 532.65,19.68 C545.67,25.10 570.52,37.98 573.74,40.98 C576.95,43.96 586.74,49.00 589.34,49.00 C592.87,49.00 609.67,52.76 613.28,54.36 C615.05,55.14 617.39,56.08 618.47,56.45 C619.97,56.95 620.13,57.30 619.12,57.92 C618.23,58.47 619.04,58.97 621.58,59.45 C624.37,59.97 624.99,60.40 623.93,61.06 C622.71,61.84 622.72,61.99 624.00,62.10 C624.83,62.18 625.84,62.18 626.25,62.12 C626.66,62.05 627.00,62.50 627.00,63.12 C627.00,63.77 628.04,64.03 629.50,63.76 C630.88,63.49 632.00,63.69 632.00,64.20 C632.00,64.70 632.40,64.87 632.89,64.57 C633.37,64.27 634.34,64.70 635.03,65.53 C636.09,66.81 635.99,66.95 634.39,66.45 C632.64,65.89 632.63,65.93 634.26,66.98 C635.22,67.60 636.41,67.86 636.89,67.57 C637.38,67.27 638.30,67.66 638.94,68.43 C639.91,69.59 639.71,69.74 637.81,69.27 C636.54,68.96 635.75,68.99 636.06,69.33 C636.37,69.67 638.30,70.30 640.36,70.73 C642.42,71.16 644.12,71.96 644.14,72.50 C644.15,73.05 644.64,74.07 645.22,74.77 C645.99,75.69 645.76,76.65 644.39,78.27 C642.50,80.49 642.51,80.50 644.58,78.75 C647.08,76.65 648.72,76.43 647.07,78.42 C646.09,79.60 646.28,79.74 648.19,79.27 C649.46,78.96 650.17,79.07 649.76,79.51 C649.03,80.30 651.76,82.34 655.24,83.60 C656.20,83.94 656.77,84.57 656.51,84.98 C656.26,85.39 657.04,86.58 658.26,87.62 C660.44,89.48 660.45,89.48 658.98,87.50 C658.13,86.35 659.03,86.78 661.09,88.50 C664.88,91.67 672.00,101.07 672.00,102.91 C672.00,103.51 672.34,104.00 672.75,104.01 C673.16,104.01 675.03,107.05 676.90,110.76 C678.76,114.47 681.14,119.17 682.19,121.21 C685.62,127.93 691.93,149.10 691.98,154.05 C691.99,155.45 691.46,157.14 690.80,157.80 C690.02,158.58 689.97,159.00 690.68,159.00 C691.27,159.00 692.32,160.36 693.01,162.03 C694.21,164.93 694.13,169.06 692.48,187.50 C692.13,191.45 692.24,191.98 693.00,190.00 C694.28,186.67 693.47,209.30 692.02,217.50 C690.18,227.83 687.77,237.45 686.68,238.83 C686.10,239.56 685.71,243.30 685.81,247.14 C685.94,251.91 685.66,253.91 684.92,253.45 C684.16,252.98 684.02,255.29 684.44,261.14 C685.93,281.98 686.09,288.48 685.16,290.43 C683.40,294.14 682.97,296.14 684.07,295.46 C686.01,294.26 684.01,329.08 682.00,331.50 C680.88,332.85 682.03,334.58 684.00,334.51 C684.83,334.48 685.43,333.66 685.36,332.69 C685.25,331.43 685.55,331.21 686.40,331.92 C687.26,332.63 687.91,332.07 688.71,329.95 C689.42,328.08 689.45,327.22 688.82,327.61 C687.17,328.63 690.13,323.66 692.31,321.75 C693.41,320.79 695.29,320.00 696.50,320.00 C700.51,320.00 703.26,325.55 700.79,328.69 C700.21,329.43 700.29,330.68 701.03,332.05 C702.71,335.19 701.72,340.12 694.88,362.64 C687.53,386.87 684.00,400.32 684.00,404.13 C684.00,405.71 683.13,407.87 682.07,408.93 C680.47,410.53 680.22,411.81 680.66,416.18 C681.26,422.14 679.22,432.29 675.85,440.12 C672.47,447.99 666.06,450.07 662.40,444.49 C661.55,443.20 660.02,442.20 658.99,442.28 C656.77,442.44 655.63,445.85 657.18,447.71 C658.71,449.55 657.35,459.95 655.29,462.23 C654.03,463.62 653.92,464.32 654.82,465.22 C657.33,467.73 655.92,491.69 652.93,497.24 C652.42,498.19 652.00,499.88 652.00,500.99 C652.00,502.09 651.64,503.00 651.20,503.00 C650.75,503.00 650.37,506.04 650.35,509.75 C650.23,528.22 630.25,566.40 609.75,587.35 L 606.96 590.19 L 607.02 630.08 C607.07,657.96 607.41,669.90 608.16,669.74 C608.75,669.61 609.37,670.33 609.54,671.33 C609.84,673.12 611.70,674.99 615.23,677.04 C616.65,677.87 616.84,677.73 616.29,676.31 C615.69,674.76 615.80,674.73 617.20,676.03 C618.08,676.84 618.54,677.91 618.24,678.40 C617.94,678.90 618.21,678.99 618.84,678.60 C619.47,678.21 621.98,679.27 624.42,680.95 C626.86,682.63 629.08,684.00 629.36,684.00 C629.63,684.00 632.68,685.88 636.14,688.17 C639.59,690.47 646.15,694.33 650.70,696.75 C655.26,699.17 659.33,701.73 659.74,702.43 C660.16,703.13 661.53,704.25 662.78,704.90 C664.03,705.56 664.80,706.52 664.48,707.04 C664.15,707.56 664.62,707.70 665.53,707.35 C666.84,706.85 666.90,706.55 665.83,705.88 C665.10,705.41 664.91,705.02 665.42,705.02 C667.12,704.99 680.00,711.29 680.00,712.15 C680.00,712.62 681.12,713.00 682.50,713.00 C683.88,713.00 685.00,713.45 685.00,714.00 C685.00,714.55 685.96,715.00 687.13,715.00 C689.73,715.00 696.21,718.85 695.51,719.99 C695.23,720.43 696.33,720.71 697.94,720.60 C699.55,720.49 700.64,720.77 700.35,721.24 C700.07,721.70 700.95,721.80 702.31,721.46 C705.12,720.75 707.03,722.72 704.88,724.11 C704.00,724.67 704.97,724.82 707.50,724.51 C712.65,723.89 719.76,726.51 722.91,730.21 C725.04,732.71 725.49,732.86 726.92,731.57 C728.33,730.30 729.15,730.32 733.51,731.71 C736.26,732.58 739.49,734.19 740.70,735.28 C741.91,736.36 743.54,737.01 744.33,736.70 C745.11,736.40 746.33,736.68 747.02,737.33 C748.00,738.23 748.13,738.21 747.59,737.25 C747.20,736.56 747.29,736.00 747.79,736.00 C749.60,736.00 755.09,738.24 754.57,738.77 C753.69,739.65 759.02,742.00 761.89,742.00 C763.36,742.00 765.49,742.66 766.64,743.46 C767.78,744.26 769.91,744.70 771.36,744.44 C772.94,744.15 774.00,744.42 774.00,745.09 C774.00,745.83 775.16,746.01 777.37,745.59 C781.23,744.87 784.00,745.65 784.00,747.46 C784.00,748.27 786.24,748.92 790.29,749.30 C798.41,750.06 826.30,757.38 830.50,759.86 C831.05,760.18 831.95,760.47 832.50,760.50 C836.02,760.70 840.08,762.35 839.67,763.43 C839.40,764.11 839.71,764.69 840.35,764.71 C840.98,764.74 842.36,765.12 843.41,765.55 C844.76,766.11 845.12,766.00 844.61,765.17 C844.19,764.50 844.44,764.01 845.19,764.02 C846.99,764.05 855.32,767.89 856.01,769.01 C856.32,769.51 858.28,770.64 860.38,771.51 C862.88,772.56 863.93,772.69 863.44,771.90 C862.96,771.12 863.11,770.95 863.88,771.42 C864.53,771.83 866.51,772.29 868.28,772.46 C872.73,772.88 891.63,781.10 899.34,785.97 C902.85,788.19 906.23,790.00 906.86,790.00 C908.08,790.00 920.36,798.22 923.16,800.91 C924.07,801.78 927.70,804.97 931.22,808.00 C936.86,812.84 944.00,820.92 944.00,822.46 C944.00,822.76 944.94,823.94 946.09,825.09 C947.39,826.39 947.99,827.95 947.66,829.19 C947.30,830.58 948.18,832.24 950.52,834.59 C954.72,838.78 959.22,851.80 959.48,860.50 C959.58,863.80 960.16,867.62 960.77,869.00 C960.78,869.01 960.78,869.02 960.79,869.02 C961.58,869.02 961.89,751.91 961.94,435.75 L 962.00 0.00 L 962.00 993.00 L 0.00 993.00 L 0.00 0.00 ZM 261.52 325.19 C261.83,326.00 262.72,326.67 263.50,326.67 C264.28,326.67 264.69,326.31 264.42,325.87 C264.15,325.43 264.84,324.49 265.96,323.79 C267.08,323.09 268.00,322.10 268.00,321.59 C268.00,321.07 266.96,321.63 265.69,322.83 C262.65,325.67 261.15,325.63 263.60,322.77 C265.48,320.56 265.48,320.55 263.50,321.98 C262.40,322.78 261.38,323.50 261.23,323.57 C261.08,323.65 261.21,324.38 261.52,325.19 ZM 698.68 325.95 C699.52,327.15 700.50,327.81 700.85,327.43 C701.21,327.04 700.92,326.52 700.21,326.27 C699.37,325.97 699.24,325.40 699.86,324.65 C700.47,323.91 700.34,323.07 699.49,322.29 C697.46,320.42 696.82,323.30 698.68,325.95 ZM 296.49 443.99 C296.69,444.31 297.76,444.57 298.88,444.57 C300.77,444.57 300.79,444.47 299.20,442.93 C298.09,441.86 297.26,441.66 296.82,442.35 C296.44,442.93 296.29,443.67 296.49,443.99 ZM 647.36 74.50 C647.68,75.32 647.78,76.00 647.59,76.00 C647.40,76.00 646.68,75.32 646.00,74.50 C645.28,73.64 645.19,73.00 645.77,73.00 C646.33,73.00 647.05,73.68 647.36,74.50 ZM 214.21 738.60 C213.50,739.37 213.36,740.00 213.90,740.00 C214.94,740.00 216.44,738.10 215.85,737.53 C215.66,737.35 214.92,737.83 214.21,738.60 ZM 75.01 781.59 C74.37,782.23 74.70,782.57 76.00,782.57 C77.30,782.57 77.63,782.23 76.99,781.59 C76.34,780.94 75.66,780.94 75.01,781.59 ZM 258.00 723.56 C258.00,723.80 257.55,724.00 257.00,724.00 C256.45,724.00 256.00,723.52 256.00,722.94 C256.00,722.36 256.45,722.16 257.00,722.50 C257.55,722.84 258.00,723.32 258.00,723.56 Z" fill="rgb(147,148,152)"/>
<path d="M 414.42 3.19 C417.28,2.62 420.20,2.09 423.00,1.63 C430.43,0.40 404.35,0.21 215.75,0.11 L 0.00 0.00 L 962.00 0.00 L 709.25 0.14 C557.69,0.22 462.88,0.61 462.88,1.15 C462.88,1.16 462.92,1.17 463.00,1.18 C467.90,1.86 472.67,2.62 477.33,3.46 C464.82,1.42 451.00,0.12 451.00,1.74 C451.00,2.35 449.21,2.55 446.52,2.25 C443.93,1.96 440.70,2.29 438.90,3.04 C436.16,4.17 435.65,4.13 434.83,2.67 C433.70,0.65 430.50,0.60 419.00,2.41 C417.46,2.66 415.93,2.92 414.42,3.19 ZM 690.19 226.70 C689.70,229.15 689.16,231.58 688.58,234.00 C687.56,238.27 687.01,245.48 686.99,255.00 C686.94,271.84 685.58,299.79 683.54,326.00 C683.52,326.23 683.50,326.46 683.48,326.68 C683.22,330.11 683.07,331.93 683.50,332.08 C683.98,332.24 685.19,330.30 687.74,326.18 L 688.19 325.45 C690.30,322.06 691.66,320.97 694.43,320.45 C694.50,320.43 694.56,320.42 694.62,320.41 C693.77,320.73 692.92,321.22 692.31,321.75 C690.13,323.66 687.17,328.63 688.82,327.61 C689.45,327.22 689.42,328.08 688.71,329.95 C687.91,332.07 687.26,332.63 686.40,331.92 C685.55,331.21 685.25,331.43 685.36,332.69 C685.43,333.66 684.83,334.48 684.00,334.51 C682.03,334.58 680.88,332.85 682.00,331.50 C684.01,329.08 686.01,294.26 684.07,295.46 C682.97,296.14 683.40,294.14 685.16,290.43 C686.09,288.48 685.93,281.98 684.44,261.14 C684.02,255.29 684.16,252.98 684.92,253.45 C685.66,253.91 685.94,251.91 685.81,247.14 C685.71,243.30 686.10,239.56 686.68,238.83 C687.43,237.88 688.81,233.01 690.19,226.70 ZM 690.86 716.16 C693.64,717.09 697.51,718.51 701.53,720.08 C718.35,726.68 729.62,730.49 748.50,735.99 C754.55,737.75 760.17,739.44 761.00,739.75 C761.83,740.05 763.39,740.47 764.48,740.68 C765.49,740.87 773.13,742.99 781.93,745.52 C780.77,745.24 779.19,745.25 777.37,745.59 C775.16,746.01 774.00,745.83 774.00,745.09 C774.00,744.42 772.94,744.15 771.36,744.44 C769.91,744.70 767.78,744.26 766.64,743.46 C765.49,742.66 763.36,742.00 761.89,742.00 C759.02,742.00 753.69,739.65 754.57,738.77 C755.09,738.24 749.60,736.00 747.79,736.00 C747.29,736.00 747.20,736.56 747.59,737.25 C748.13,738.21 748.00,738.23 747.02,737.33 C746.33,736.68 745.11,736.40 744.33,736.70 C743.54,737.01 741.91,736.36 740.70,735.28 C739.49,734.19 736.26,732.58 733.51,731.71 C729.15,730.32 728.33,730.30 726.92,731.57 C725.49,732.86 725.04,732.71 722.91,730.21 C719.76,726.51 712.65,723.89 707.50,724.51 C704.97,724.82 704.00,724.67 704.88,724.11 C707.03,722.72 705.12,720.75 702.31,721.46 C700.95,721.80 700.07,721.70 700.35,721.24 C700.64,720.77 699.55,720.49 697.94,720.60 C696.33,720.71 695.23,720.43 695.51,719.99 C695.96,719.25 693.42,717.39 690.86,716.16 ZM 617.05 55.92 C617.28,55.97 617.47,56.00 617.61,56.00 C619.86,56.00 635.22,64.34 641.50,68.97 C647.25,73.21 659.51,84.94 663.31,89.83 C665.46,92.60 667.42,95.30 668.94,97.52 C666.55,94.20 663.27,90.32 661.09,88.50 C659.03,86.78 658.13,86.35 658.98,87.50 C660.45,89.48 660.44,89.48 658.26,87.62 C657.04,86.58 656.26,85.39 656.51,84.98 C656.77,84.57 656.20,83.94 655.24,83.60 C651.76,82.34 649.03,80.30 649.76,79.51 C650.17,79.07 649.46,78.96 648.19,79.27 C646.28,79.74 646.09,79.60 647.07,78.42 C648.72,76.43 647.08,76.65 644.58,78.75 C642.51,80.50 642.50,80.49 644.39,78.27 C645.76,76.65 645.99,75.69 645.22,74.77 C644.64,74.07 644.15,73.05 644.14,72.50 C644.12,71.96 642.42,71.16 640.36,70.73 C638.30,70.30 636.37,69.67 636.06,69.33 C635.75,68.99 636.54,68.96 637.81,69.27 C639.71,69.74 639.91,69.59 638.94,68.43 C638.30,67.66 637.38,67.27 636.89,67.57 C636.41,67.86 635.22,67.60 634.26,66.98 C632.63,65.93 632.64,65.89 634.39,66.45 C635.99,66.95 636.09,66.81 635.03,65.53 C634.34,64.70 633.37,64.27 632.89,64.57 C632.40,64.87 632.00,64.70 632.00,64.20 C632.00,63.69 630.88,63.49 629.50,63.76 C628.04,64.03 627.00,63.77 627.00,63.12 C627.00,62.50 626.66,62.05 626.25,62.12 C625.84,62.18 624.83,62.18 624.00,62.10 C622.72,61.99 622.71,61.84 623.93,61.06 C624.99,60.40 624.37,59.97 621.58,59.45 C619.04,58.97 618.23,58.47 619.12,57.92 C620.13,57.30 619.97,56.95 618.47,56.45 C618.11,56.33 617.62,56.14 617.05,55.92 ZM 275.72 327.52 C276.49,328.64 277.25,329.88 278.01,331.25 C280.96,336.58 283.58,339.81 282.52,336.80 C281.53,334.03 278.96,294.46 278.42,274.00 C278.01,258.07 277.72,252.45 275.23,240.39 C275.51,241.56 275.75,242.49 276.03,243.50 C277.85,250.28 279.24,266.92 279.02,279.29 C278.85,289.05 279.11,291.53 280.56,293.73 C281.76,295.56 281.94,296.52 281.15,296.78 C279.29,297.40 279.73,307.65 281.75,310.75 C282.71,312.22 282.94,313.08 282.25,312.65 C281.31,312.08 281.00,313.14 281.00,316.88 C281.00,321.35 281.22,321.84 283.00,321.50 C284.45,321.22 285.00,321.65 285.00,323.06 C285.00,324.13 284.44,325.01 283.75,325.02 C282.90,325.03 282.98,325.37 284.00,326.09 C285.13,326.89 285.19,327.28 284.25,327.66 C283.56,327.94 283.00,328.61 283.00,329.14 C283.00,329.68 283.45,329.84 284.00,329.50 C284.58,329.14 285.00,330.10 285.00,331.77 C285.00,333.37 285.30,334.97 285.67,335.33 C286.03,335.70 286.46,337.23 286.62,338.74 C286.84,340.78 286.67,341.10 285.97,339.99 C285.20,338.76 285.01,338.85 284.94,340.50 C284.88,341.60 284.62,341.96 284.36,341.31 C284.09,340.65 284.34,339.23 284.91,338.16 C285.71,336.67 285.59,335.90 284.39,334.91 C283.09,333.83 282.86,333.85 283.03,335.05 C283.14,335.85 283.18,337.32 283.12,338.32 C283.01,339.94 282.83,339.98 281.50,338.64 C280.67,337.82 280.00,336.60 280.00,335.94 C280.00,334.80 277.89,330.86 275.72,327.52 ZM 209.06 737.80 C209.82,737.53 210.63,737.25 211.50,736.95 C217.55,734.85 228.35,731.28 235.50,729.02 C242.65,726.75 249.40,724.47 250.50,723.95 C251.60,723.43 257.00,721.46 262.50,719.57 C265.84,718.43 269.48,717.07 273.16,715.59 C269.72,717.01 266.63,718.23 264.38,719.02 C260.05,720.54 258.29,721.66 258.38,722.84 C258.47,724.12 257.58,724.52 254.50,724.59 C247.98,724.75 247.44,724.89 243.60,727.50 C241.57,728.88 238.55,730.00 236.90,730.00 C235.24,730.00 234.11,730.37 234.39,730.82 C234.67,731.27 234.02,732.39 232.95,733.31 C230.80,735.15 230.27,734.19 232.25,732.05 C233.26,730.96 233.23,730.86 232.10,731.50 C231.33,731.94 229.53,732.39 228.10,732.49 C223.30,732.85 223.00,732.99 223.00,734.90 C223.00,736.49 222.39,736.74 219.25,736.45 C217.00,736.24 214.55,736.72 213.13,737.65 C211.60,738.65 211.04,738.75 211.54,737.93 C212.07,737.08 211.86,736.83 210.91,737.17 C210.56,737.30 209.91,737.52 209.06,737.80 ZM 607.66 667.40 L 620.25 676.76 C637.50,689.58 643.34,693.16 663.09,703.03 C666.35,704.66 669.42,706.24 672.02,707.61 C669.03,706.19 666.16,705.00 665.42,705.02 C664.91,705.02 665.10,705.41 665.83,705.88 C666.90,706.55 666.84,706.85 665.53,707.35 C664.62,707.70 664.15,707.56 664.48,707.04 C664.80,706.52 664.03,705.56 662.78,704.90 C661.53,704.25 660.16,703.13 659.74,702.43 C659.33,701.73 655.26,699.17 650.70,696.75 C646.15,694.33 639.59,690.47 636.14,688.17 C632.68,685.88 629.63,684.00 629.36,684.00 C629.08,684.00 626.86,682.63 624.42,680.95 C621.98,679.27 619.47,678.21 618.84,678.60 C618.21,678.99 617.94,678.90 618.24,678.40 C618.54,677.91 618.08,676.84 617.20,676.03 C615.80,674.73 615.69,674.76 616.29,676.31 C616.84,677.73 616.65,677.87 615.23,677.04 C611.70,674.99 609.84,673.12 609.54,671.33 C609.37,670.33 608.75,669.61 608.16,669.74 C607.97,669.78 607.80,669.02 607.66,667.40 ZM 292.60 447.52 C291.19,446.97 289.78,445.93 288.34,444.40 C283.73,439.51 281.43,433.65 278.66,418.49 C280.06,425.47 281.50,430.17 282.18,429.49 C282.53,429.14 283.11,429.78 283.48,430.92 C283.84,432.07 284.61,433.00 285.18,433.00 C285.76,433.00 286.02,434.11 285.76,435.47 C285.47,437.00 285.68,437.70 286.31,437.31 C286.93,436.92 287.09,437.32 286.72,438.29 C286.29,439.42 286.53,439.73 287.55,439.34 C288.87,438.84 289.50,440.08 289.08,442.37 C288.99,442.85 289.50,443.01 290.21,442.72 C293.98,441.18 295.18,441.06 292.75,442.47 C289.86,444.14 288.91,446.35 291.51,445.36 C292.59,444.94 292.85,445.24 292.40,446.39 C292.22,446.87 292.32,447.25 292.60,447.52 ZM 308.79 487.67 C307.79,479.68 307.01,471.81 307.01,468.55 C307.00,463.14 305.31,447.41 304.38,444.16 C304.10,443.20 303.13,443.56 300.92,445.41 C298.86,447.15 296.91,448.02 294.99,448.00 C296.09,447.87 297.27,447.38 297.97,446.53 C298.64,445.72 299.49,445.10 299.85,445.15 C301.70,445.40 301.96,444.79 300.90,442.75 C300.26,441.51 300.07,440.82 300.50,441.21 C300.92,441.61 302.02,441.53 302.94,441.03 C303.86,440.54 305.03,440.45 305.55,440.82 C306.07,441.19 306.59,447.96 306.70,455.86 C306.86,467.39 307.21,470.57 308.48,471.98 C309.78,473.41 309.86,474.21 308.92,476.27 C308.28,477.68 308.29,482.12 308.79,487.67 ZM 334.91 682.80 C338.42,680.34 341.57,677.91 344.23,675.64 C347.13,673.14 350.74,670.07 352.24,668.80 L 354.22 667.14 C354.14,667.91 354.06,668.34 353.97,668.43 C353.44,668.96 353.00,670.17 353.00,671.12 C353.00,672.84 346.26,677.74 344.63,677.20 C344.15,677.05 340.10,679.35 335.63,682.33 C335.39,682.49 335.15,682.64 334.91,682.80 ZM 693.82 167.13 C695.02,180.57 694.71,195.20 692.92,209.88 C693.74,200.12 693.98,187.45 693.00,190.00 C692.24,191.98 692.13,191.45 692.48,187.50 C693.45,176.63 693.88,170.73 693.82,167.13 ZM 659.39 442.29 C658.45,443.77 656.83,461.50 657.35,464.75 C657.64,466.54 657.45,468.00 656.94,468.00 C656.57,468.00 656.26,469.99 656.10,472.88 C656.02,469.01 655.62,466.02 654.82,465.22 C653.92,464.32 654.03,463.62 655.29,462.23 C657.35,459.95 658.71,449.55 657.18,447.71 C655.63,445.85 656.77,442.44 658.99,442.28 C659.12,442.27 659.25,442.27 659.39,442.29 ZM 262.32 350.70 C260.53,345.62 258.89,338.03 258.37,332.34 C257.76,325.56 257.87,325.04 260.32,322.59 C263.28,319.63 266.55,319.26 269.90,321.39 C266.74,319.94 262.91,320.18 261.00,322.24 C259.48,323.86 259.30,324.57 260.25,325.19 C261.22,325.82 261.17,326.22 260.00,326.98 C259.00,327.64 258.91,327.97 259.75,327.98 C260.44,327.99 260.99,329.01 260.98,330.25 C260.97,332.07 260.78,332.21 260.00,331.00 C259.29,329.90 259.03,330.66 259.02,333.81 C259.01,336.18 259.39,337.88 259.86,337.59 C260.33,337.30 260.98,340.23 261.31,344.12 C261.52,346.62 261.91,349.08 262.32,350.70 ZM 846.83 764.41 C854.73,766.90 863.96,770.02 869.00,772.02 C872.26,773.31 875.12,774.45 877.65,775.48 C873.44,773.80 869.90,772.61 868.28,772.46 C866.51,772.29 864.53,771.83 863.88,771.42 C863.11,770.95 862.96,771.12 863.44,771.90 C863.93,772.69 862.88,772.56 860.38,771.51 C858.28,770.64 856.32,769.51 856.01,769.01 C855.45,768.11 849.89,765.42 846.83,764.41 ZM 69.06 782.66 C78.69,777.64 83.90,775.47 97.63,770.82 C90.60,773.31 80.31,777.68 84.30,776.54 C85.34,776.24 85.85,776.44 85.49,777.01 C85.16,777.56 83.98,778.00 82.88,778.00 C81.78,778.00 81.16,778.45 81.50,779.00 C81.84,779.55 81.53,780.05 80.81,780.10 C80.09,780.16 77.93,780.31 76.00,780.44 C74.39,780.54 71.98,781.34 69.06,782.66 ZM 110.98 766.12 C120.61,762.55 134.69,758.30 148.00,754.97 C152.57,753.83 156.94,752.71 160.94,751.65 C157.08,752.70 153.01,753.77 147.76,755.13 C142.47,756.51 139.51,757.71 140.26,758.18 C141.01,758.66 140.24,758.98 138.31,758.98 C136.55,758.99 134.84,759.45 134.50,760.00 C134.16,760.55 132.23,761.00 130.22,761.00 C127.46,761.00 118.68,763.37 110.98,766.12 ZM 655.96 479.75 C655.83,484.00 655.46,488.51 655.02,490.67 C654.48,493.33 653.11,500.45 651.96,506.50 C651.28,510.12 650.42,513.80 649.42,517.50 C650.01,514.66 650.33,512.05 650.35,509.75 C650.37,506.04 650.75,503.00 651.20,503.00 C651.64,503.00 652.00,502.09 652.00,500.99 C652.00,499.88 652.42,498.19 652.93,497.24 C654.45,494.42 655.56,486.84 655.96,479.75 ZM 782.37 745.65 C782.90,745.80 783.44,745.96 783.98,746.11 C793.62,748.89 804.88,752.05 809.00,753.13 C810.75,753.58 812.67,754.11 814.63,754.67 C805.38,752.16 794.79,749.72 790.29,749.30 C786.24,748.92 784.00,748.27 784.00,747.46 C784.00,746.62 783.40,746.00 782.37,745.65 ZM 683.50 406.55 C683.35,407.54 683.21,408.51 683.07,409.50 C682.05,417.12 680.77,423.85 679.32,429.42 C680.47,424.44 681.01,419.62 680.66,416.18 C680.22,411.81 680.47,410.53 682.07,408.93 C682.63,408.37 683.14,407.49 683.50,406.55 ZM 266.36 193.66 C266.07,191.51 265.78,189.28 265.50,187.00 C264.36,177.80 264.08,172.83 264.47,163.84 C264.51,167.12 264.86,168.63 265.60,169.78 C266.42,171.03 266.74,172.61 266.32,173.28 C265.04,175.31 265.16,183.30 266.36,193.66 ZM 697.50 320.12 C699.92,320.15 701.13,321.21 702.13,323.72 C703.04,326.00 702.90,330.26 701.66,336.81 C701.89,334.52 701.63,333.17 701.03,332.05 C700.29,330.68 700.21,329.43 700.79,328.69 C703.05,325.82 700.94,320.93 697.50,320.12 ZM 289.54 708.38 C291.89,707.25 294.07,706.14 296.00,705.09 C299.02,703.45 304.88,700.39 309.00,698.29 C312.59,696.47 316.19,694.51 319.69,692.48 C316.97,694.12 314.64,695.43 312.78,696.38 C310.76,697.41 308.08,699.35 306.83,700.68 C304.75,702.89 304.73,703.05 306.52,702.40 C307.61,702.00 308.18,702.04 307.78,702.47 C306.76,703.60 301.87,704.01 302.55,702.91 C303.39,701.55 302.90,701.73 296.43,705.04 C294.53,706.02 292.15,707.17 289.54,708.38 ZM 307.95 59.73 C308.21,59.48 308.46,59.23 308.71,59.00 C317.03,51.10 330.46,40.96 336.71,37.80 C330.19,41.11 316.00,52.22 316.00,54.09 C316.00,55.06 314.64,56.53 312.98,57.36 C311.06,58.32 310.20,58.44 310.63,57.68 C310.90,57.19 309.77,58.07 307.95,59.73 ZM 176.95 747.17 C180.36,746.13 182.62,745.34 183.36,744.92 C184.38,744.33 187.31,743.45 189.86,742.97 C193.74,742.24 196.28,741.73 198.94,741.02 C197.57,741.44 196.34,741.82 195.43,742.09 C193.74,742.59 191.65,743.00 190.79,743.00 C189.92,743.00 188.96,743.66 188.65,744.47 C188.30,745.38 186.83,745.91 184.79,745.86 C183.40,745.82 180.22,746.37 176.95,747.17 ZM 1.06 867.80 C1.48,866.36 1.85,863.57 1.90,861.43 C1.98,858.28 4.04,851.35 6.89,844.02 C5.60,847.72 4.75,851.05 4.82,852.92 C4.90,854.83 4.30,857.11 3.51,857.99 C2.64,858.95 1.71,863.34 1.17,869.04 C1.16,869.14 1.15,869.18 1.14,869.18 C1.11,869.18 1.09,868.72 1.06,867.80 ZM 261.52 325.19 C261.21,324.38 261.08,323.65 261.23,323.57 C261.38,323.50 262.40,322.78 263.50,321.98 C265.48,320.55 265.48,320.56 263.60,322.77 C261.15,325.63 262.65,325.67 265.69,322.83 C266.96,321.63 268.00,321.07 268.00,321.59 C268.00,322.10 267.08,323.09 265.96,323.79 C264.84,324.49 264.15,325.43 264.42,325.87 C264.69,326.31 264.28,326.67 263.50,326.67 C262.72,326.67 261.83,326.00 261.52,325.19 ZM 269.48 123.37 C270.35,119.30 272.07,113.99 273.42,111.25 C274.26,109.54 275.02,107.84 275.49,106.62 C275.14,107.59 274.64,108.82 274.09,110.05 C272.82,112.89 272.37,115.49 272.74,117.82 C273.14,120.23 272.97,121.10 272.21,120.63 C271.25,120.04 270.12,121.37 269.48,123.37 ZM 492.76 6.67 C497.44,7.78 502.02,8.99 506.50,10.30 C506.26,10.36 505.83,10.56 505.19,10.90 C502.66,12.25 500.94,12.33 503.00,11.00 C504.16,10.25 503.83,10.03 501.58,10.02 C499.97,10.01 497.84,9.26 496.85,8.36 C496.28,7.85 494.82,7.27 492.76,6.67 ZM 953.79 839.45 C952.73,837.38 951.62,835.68 950.52,834.59 C948.18,832.24 947.30,830.58 947.66,829.19 C947.99,827.95 947.39,826.39 946.09,825.09 C945.83,824.83 945.58,824.57 945.35,824.32 C946.92,825.17 950.71,832.22 953.79,839.45 ZM 513.77 12.55 C526.23,16.61 538.02,21.56 549.50,27.49 L 550.11 27.80 C543.80,24.66 537.43,21.67 532.65,19.68 C523.29,15.79 521.46,15.32 522.56,17.10 C523.40,18.45 519.13,16.27 517.24,14.38 C516.57,13.71 515.25,13.06 513.77,12.55 ZM 837.40 761.57 C839.82,762.25 842.96,763.19 846.38,764.27 C845.87,764.12 845.46,764.03 845.19,764.02 C844.44,764.01 844.19,764.50 844.61,765.17 C845.12,766.00 844.76,766.11 843.41,765.55 C842.36,765.12 840.98,764.74 840.35,764.71 C839.71,764.69 839.40,764.11 839.67,763.43 C839.88,762.87 838.89,762.16 837.40,761.57 ZM 13.26 829.84 C19.19,818.70 30.40,807.30 45.69,796.65 C39.04,801.37 32.72,806.45 28.31,810.89 C20.44,818.81 16.00,824.36 19.00,822.50 C19.92,821.93 19.94,822.25 19.06,823.88 C18.44,825.05 17.34,826.00 16.62,826.00 C15.85,826.00 14.63,827.51 13.26,829.84 ZM 339.45 569.70 C338.44,567.91 336.11,564.29 333.43,560.36 C329.81,555.06 325.73,548.20 324.35,545.12 C323.46,543.13 322.45,540.75 321.51,538.42 C324.11,544.09 327.31,550.00 328.16,550.00 C328.62,550.00 329.00,550.85 329.00,551.89 C329.00,552.94 331.48,557.44 334.50,561.91 C336.67,565.12 338.56,568.10 339.45,569.70 ZM 698.68 325.95 C696.82,323.30 697.46,320.42 699.49,322.29 C700.34,323.07 700.47,323.91 699.86,324.65 C699.24,325.40 699.37,325.97 700.21,326.27 C700.92,326.52 701.21,327.04 700.85,327.43 C700.50,327.81 699.52,327.15 698.68,325.95 ZM 691.88 152.82 C692.52,156.23 693.04,159.75 693.44,163.37 C693.33,162.87 693.18,162.44 693.01,162.03 C692.32,160.36 691.27,159.00 690.68,159.00 C689.97,159.00 690.02,158.58 690.80,157.80 C691.46,157.14 691.99,155.45 691.98,154.05 C691.97,153.71 691.94,153.30 691.88,152.82 ZM 296.49 443.99 C296.29,443.67 296.44,442.93 296.82,442.35 C297.26,441.66 298.09,441.86 299.20,442.93 C300.79,444.47 300.77,444.57 298.88,444.57 C297.76,444.57 296.69,444.31 296.49,443.99 ZM 960.61 864.52 C960.72,865.55 960.83,866.52 960.94,867.38 C960.89,868.48 960.84,869.02 960.79,869.02 C960.78,869.02 960.78,869.01 960.77,869.00 C960.16,867.62 959.58,863.80 959.48,860.50 C959.43,858.80 959.22,856.94 958.88,855.01 C959.70,858.60 960.38,862.24 960.61,864.52 ZM 641.67 539.54 C638.32,547.27 634.44,554.61 630.20,561.08 C629.07,562.80 627.67,564.81 626.13,566.95 C632.11,558.13 637.50,548.60 641.67,539.54 ZM 506.76 10.38 C508.89,11.00 511.00,11.65 513.09,12.33 C510.84,11.64 508.37,11.30 507.26,11.73 C506.15,12.16 505.91,11.96 506.46,11.07 C506.67,10.72 506.78,10.49 506.76,10.38 ZM 647.36 74.50 C647.05,73.68 646.33,73.00 645.77,73.00 C645.19,73.00 645.28,73.64 646.00,74.50 C646.68,75.32 647.40,76.00 647.59,76.00 C647.78,76.00 647.68,75.32 647.36,74.50 ZM 214.21 738.60 C214.92,737.83 215.66,737.35 215.85,737.53 C216.44,738.10 214.94,740.00 213.90,740.00 C213.36,740.00 213.50,739.37 214.21,738.60 ZM 265.80 144.51 C266.18,140.47 266.57,137.29 266.86,136.00 C266.92,135.73 266.99,135.42 267.06,135.08 C266.91,136.27 266.79,137.59 266.74,138.86 C266.61,142.13 266.23,144.64 265.90,144.44 C265.87,144.42 265.84,144.44 265.80,144.51 ZM 75.01 781.59 C75.66,780.94 76.34,780.94 76.99,781.59 C77.63,782.23 77.30,782.57 76.00,782.57 C74.70,782.57 74.37,782.23 75.01,781.59 ZM 258.00 723.56 C258.00,723.32 257.55,722.84 257.00,722.50 C256.45,722.16 256.00,722.36 256.00,722.94 C256.00,723.52 256.45,724.00 257.00,724.00 C257.55,724.00 258.00,723.80 258.00,723.56 ZM 272.81 229.40 C272.39,227.57 271.94,225.61 271.45,223.50 C270.53,219.52 269.61,214.80 268.71,209.42 C269.16,211.93 269.66,214.47 270.19,217.00 C271.29,222.20 272.14,226.22 272.81,229.40 ZM 695.84 359.47 C695.55,360.46 695.24,361.47 694.93,362.50 C688.60,383.34 685.71,394.02 684.04,403.31 C684.45,398.62 687.98,385.38 694.88,362.64 C695.22,361.54 695.54,360.48 695.84,359.47 ZM 880.61 776.70 C889.90,780.56 894.31,782.80 899.17,785.87 C894.87,783.18 887.29,779.52 880.61,776.70 ZM 267.88 131.27 C268.26,129.44 268.67,127.43 269.04,125.56 C269.02,125.87 269.00,126.18 269.00,126.50 C269.00,127.95 268.55,129.98 267.99,131.02 C267.95,131.09 267.91,131.17 267.88,131.27 ZM 264.82 359.58 C264.10,357.11 263.54,354.96 263.49,354.50 C263.44,354.05 263.22,353.20 262.97,352.46 C262.97,352.47 262.98,352.47 262.98,352.48 C263.58,353.20 263.96,354.17 263.82,354.64 C263.71,355.04 264.14,357.13 264.82,359.58 ZM 669.29 447.33 C667.58,448.06 666.56,448.07 665.28,447.14 C666.55,447.74 667.93,447.79 669.29,447.33 ZM 606.96 590.19 L 607.00 590.15 L 607.00 615.79 ZM 565.49 35.85 C570.83,38.72 572.53,39.85 573.74,40.98 C572.74,40.05 569.66,38.16 565.49,35.85 ZM 313.13 512.92 C312.79,511.44 312.35,509.59 311.96,508.00 C311.69,506.90 311.38,505.31 311.05,503.41 C311.23,504.29 311.41,505.15 311.60,506.00 C312.14,508.43 312.72,511.06 313.13,512.92 ZM 294.78 74.57 C290.70,79.68 286.89,84.78 285.50,87.15 C287.12,84.38 290.72,79.58 294.78,74.57 ZM 687.44 135.32 C685.64,129.58 683.65,124.08 682.19,121.21 C683.69,124.16 685.59,129.29 687.44,135.32 ZM 939.83 816.59 C937.32,813.74 934.08,810.45 931.22,808.00 C934.29,810.63 937.43,813.81 939.83,816.59 ZM 830.20 759.69 C830.32,759.75 830.41,759.79 830.48,759.84 C831.02,760.15 832.15,760.46 832.98,760.52 C833.10,760.53 833.25,760.55 833.43,760.58 C833.12,760.55 832.81,760.52 832.50,760.50 C831.95,760.47 831.05,760.18 830.50,759.86 C830.41,759.80 830.31,759.75 830.20,759.69 ZM 600.98 51.01 C595.99,49.90 591.07,49.00 589.34,49.00 C591.18,49.00 596.06,49.90 600.98,51.01 ZM 672.98 444.75 C672.29,445.59 671.60,446.19 670.91,446.55 L 670.84 446.58 C671.58,446.12 672.30,445.51 672.98,444.75 ZM 662.08 444.05 C661.57,443.55 661.09,443.13 660.67,442.81 C661.18,443.13 661.68,443.56 662.08,444.05 ZM 680.25 712.52 C680.75,712.80 681.65,713.00 682.58,713.00 C683.91,713.00 685.00,713.45 685.00,714.00 C685.00,713.45 683.87,713.00 682.50,713.00 C681.51,713.00 680.65,712.80 680.25,712.52 ZM 272.45 387.77 C271.00,381.76 269.38,375.53 267.68,369.46 C269.38,375.51 271.00,381.76 272.45,387.77 ZM 671.97 102.69 C671.99,102.76 672.00,102.82 672.00,102.87 C672.00,103.49 672.34,104.00 672.75,104.01 C672.34,104.00 672.00,103.51 672.00,102.91 C672.00,102.85 671.99,102.77 671.97,102.69 Z" fill="rgb(151,151,154)"/>
<path d="M 655.96 479.75 C656.05,478.07 656.10,476.42 656.11,474.86 C656.30,476.34 656.70,477.00 657.38,477.00 C659.37,477.00 661.00,472.35 661.53,465.13 C661.78,461.67 662.40,458.11 662.89,457.23 C663.44,456.25 663.38,454.73 662.73,453.31 C661.33,450.23 661.99,449.79 665.88,451.26 C668.82,452.37 669.28,452.28 670.81,450.28 C672.12,448.57 673.21,448.19 675.64,448.58 C680.37,449.34 682.05,447.16 680.84,441.78 C679.93,437.75 681.44,428.11 682.77,429.44 C683.04,429.71 684.13,428.84 685.18,427.49 C686.75,425.50 686.89,424.67 685.95,422.90 C685.10,421.31 685.08,420.11 685.90,418.32 C687.22,415.43 686.29,408.33 684.51,407.64 C683.86,407.39 683.37,408.18 682.98,410.16 C683.01,409.94 683.04,409.72 683.07,409.50 C683.21,408.51 683.35,407.54 683.50,406.55 C683.81,405.73 684.00,404.87 684.00,404.13 C684.00,403.90 684.01,403.63 684.04,403.33 C684.04,403.34 684.04,403.36 684.04,403.38 C684.07,405.04 684.46,404.74 685.82,402.00 C686.77,400.08 688.12,396.59 688.81,394.26 C689.51,391.93 690.39,390.07 690.79,390.13 C692.66,390.41 694.00,389.90 694.00,388.89 C694.00,388.28 693.35,388.04 692.55,388.34 C691.58,388.71 691.29,388.42 691.66,387.45 C691.96,386.65 692.59,386.00 693.04,386.00 C694.39,386.00 695.30,381.92 695.50,375.00 C695.73,367.13 697.04,361.40 699.44,357.74 C700.42,356.23 700.94,355.00 700.59,355.00 C700.24,355.00 700.62,353.70 701.44,352.12 C703.88,347.39 705.27,333.94 703.38,333.30 C702.72,333.07 702.01,334.85 701.63,337.71 C701.56,338.27 701.36,339.22 701.07,340.48 C701.37,339.03 701.56,337.82 701.66,336.81 C702.78,330.91 703.00,326.87 702.37,324.46 C702.62,324.80 702.88,325.00 703.12,325.00 C704.57,325.00 704.11,320.26 702.50,318.64 C701.67,317.82 701.00,316.68 701.00,316.11 C701.00,314.00 697.41,313.06 693.69,314.20 C691.70,314.81 690.31,315.69 690.60,316.16 C690.88,316.62 690.84,317.45 690.50,318.01 C689.83,319.09 687.00,316.85 687.00,315.24 C687.00,314.74 686.33,314.33 685.50,314.33 C684.97,314.33 684.58,314.61 684.34,315.19 C684.48,313.12 684.62,311.05 684.75,308.99 C684.77,309.33 684.80,309.63 684.83,309.86 L 685.17 312.23 L 686.58 309.50 C688.39,306.02 688.40,301.58 686.60,300.09 C685.94,299.54 685.56,299.48 685.30,300.21 C685.58,295.46 685.83,290.78 686.04,286.27 C686.15,288.99 686.50,288.93 687.63,287.80 C688.82,286.61 689.05,285.40 688.49,283.33 C688.06,281.78 687.63,279.71 687.52,278.75 C687.42,277.79 687.03,276.70 686.67,276.33 C686.60,276.27 686.53,276.31 686.47,276.44 C686.79,268.29 686.97,260.95 686.99,255.00 C687.00,250.66 687.12,246.81 687.34,243.49 C687.59,243.33 687.99,242.69 688.64,241.50 C689.53,239.85 690.83,237.46 691.52,236.18 C692.39,234.58 692.95,234.27 693.31,235.18 C693.60,235.91 693.88,235.24 693.92,233.69 C693.97,232.06 693.58,231.14 693.00,231.50 C691.84,232.21 691.63,229.70 692.75,228.58 C693.73,227.60 696.15,218.06 696.07,215.50 C695.71,204.89 694.22,203.45 692.78,211.36 C692.83,210.87 692.87,210.38 692.92,209.88 C694.53,196.68 694.95,183.52 694.14,171.23 C694.31,172.29 694.60,173.00 694.93,173.00 C696.28,173.00 697.27,169.24 696.31,167.76 C695.87,167.07 695.41,164.25 695.29,161.50 C694.44,141.25 694.20,139.81 691.21,137.32 C688.93,135.43 687.06,126.47 687.02,117.25 C687.00,113.40 686.77,113.00 684.54,113.00 C681.42,113.00 680.38,110.91 680.07,104.00 C679.79,97.75 678.77,96.00 675.40,96.00 C673.64,96.00 672.89,95.30 672.44,93.25 C671.45,88.77 670.99,87.68 670.34,88.33 C670.00,88.67 668.47,88.21 666.94,87.31 C664.97,86.14 664.22,84.94 664.33,83.14 C664.47,81.01 663.89,80.44 660.54,79.48 C657.33,78.56 656.43,77.75 655.76,75.17 C655.02,72.28 654.02,71.49 651.64,71.92 C650.00,72.21 648.00,69.73 648.00,67.40 C648.00,65.75 647.32,64.90 645.75,64.58 C644.51,64.33 642.26,63.86 640.75,63.54 C639.19,63.21 638.00,62.29 638.00,61.42 C638.00,60.57 637.52,60.18 636.93,60.54 C636.34,60.90 635.62,60.26 635.32,59.10 C635.01,57.95 634.71,56.98 634.63,56.95 C634.56,56.92 632.47,56.64 630.00,56.33 C627.53,56.02 625.28,55.45 625.00,55.05 C624.72,54.66 623.07,53.72 621.32,52.96 C619.57,52.20 618.36,51.22 618.63,50.79 C618.90,50.35 618.30,49.94 617.31,49.87 C614.04,49.64 610.60,49.19 603.69,48.08 C599.95,47.48 595.78,47.27 594.44,47.60 C592.31,48.14 591.91,47.81 591.37,45.10 C590.84,42.44 590.34,42.02 587.97,42.20 C586.45,42.32 584.59,41.91 583.85,41.30 C583.11,40.69 581.60,40.03 580.50,39.85 C578.02,39.42 576.00,37.59 576.00,35.77 C576.00,33.38 573.88,31.99 571.86,33.07 C570.52,33.79 568.98,33.52 566.14,32.07 C564.00,30.98 561.97,30.36 561.63,30.71 C561.29,31.05 560.53,29.95 559.94,28.26 C558.81,25.02 556.77,24.04 551.09,24.01 C548.60,24.00 546.98,23.22 545.09,21.10 C542.31,18.00 536.10,15.84 527.75,15.07 C527.34,15.03 527.00,14.13 527.00,13.06 C527.00,11.99 526.54,10.84 525.99,10.49 C524.97,9.86 518.32,9.04 510.14,8.53 C504.60,8.18 501.74,5.89 502.59,2.49 C502.83,1.55 502.96,0.97 502.71,0.60 C544.11,0.36 615.92,0.19 709.25,0.14 L 962.00 0.00 L 961.94 435.75 C961.90,663.61 961.73,788.08 961.34,839.83 C961.25,839.44 961.15,839.22 961.03,839.18 C960.46,838.99 960.00,837.99 960.00,836.96 C960.00,833.33 957.77,830.00 955.34,830.00 C954.05,830.00 953.00,829.55 953.00,828.99 C953.00,827.31 948.78,818.88 948.22,819.45 C947.52,820.15 945.07,816.85 945.03,815.15 C944.98,812.91 940.86,807.84 939.51,808.36 C937.88,808.98 936.00,807.10 936.00,804.84 C936.00,803.63 934.75,802.74 932.02,802.00 C928.40,801.03 925.63,798.26 925.54,795.51 C925.52,794.97 924.60,794.35 923.50,794.14 C922.41,793.93 920.43,792.91 919.12,791.88 C917.81,790.85 916.22,790.00 915.60,790.00 C914.98,790.00 914.03,789.03 913.49,787.84 C912.83,786.41 911.40,785.57 909.21,785.35 C905.22,784.94 900.38,782.59 897.00,779.44 C895.21,777.77 892.66,776.87 888.08,776.30 C882.41,775.59 881.47,775.16 880.05,772.59 C878.36,769.55 877.36,769.15 870.00,768.65 C864.67,768.28 860.88,766.49 861.58,764.66 C862.14,763.20 857.41,760.63 855.89,761.57 C854.25,762.58 840.72,759.82 836.76,757.67 C834.70,756.56 832.76,754.81 832.43,753.78 C831.99,752.39 831.29,752.09 829.67,752.62 C828.48,753.00 827.05,753.28 826.50,753.23 C825.95,753.18 822.18,752.87 818.13,752.54 C809.69,751.85 807.00,750.75 807.00,747.96 C807.00,746.88 806.66,745.94 806.25,745.87 C805.84,745.80 804.38,745.55 803.00,745.31 C797.88,744.41 780.96,744.12 781.46,744.93 C781.61,745.17 782.07,745.47 782.69,745.74 L 782.37 745.65 C782.23,745.60 782.08,745.56 781.93,745.52 C773.13,742.99 765.49,740.87 764.48,740.68 C763.39,740.47 761.83,740.05 761.00,739.75 C760.17,739.44 754.55,737.75 748.50,735.99 C754.55,737.75 760.07,739.36 760.76,739.57 C761.45,739.78 762.35,740.02 762.76,740.12 C763.17,740.22 766.20,741.07 769.50,742.00 C774.28,743.36 775.56,743.44 775.81,742.41 C776.26,740.53 774.11,736.90 772.70,737.16 C772.04,737.28 767.45,736.99 762.50,736.51 C757.55,736.04 753.17,735.72 752.77,735.82 C752.36,735.91 751.76,734.88 751.42,733.54 C750.32,729.17 747.89,728.37 734.74,728.10 C730.02,728.00 729.19,727.50 725.66,722.58 C724.32,720.72 722.91,720.46 710.89,719.86 C706.86,719.66 704.86,718.50 703.20,715.39 C702.34,713.78 700.74,713.13 696.33,712.61 C687.29,711.55 686.00,711.04 686.00,708.56 C686.00,707.33 685.44,706.31 684.75,706.28 C682.89,706.20 677.95,705.16 674.14,704.05 C672.29,703.52 670.49,703.11 670.14,703.16 C667.53,703.49 665.93,702.62 664.80,700.25 C663.97,698.53 662.55,697.39 660.99,697.20 C659.62,697.04 657.29,696.43 655.80,695.85 C653.48,694.95 653.27,694.54 654.28,692.93 C656.32,689.66 653.04,688.15 643.23,687.82 C640.99,687.75 639.55,686.45 639.52,684.50 C639.49,682.92 632.26,679.80 628.63,679.80 C625.62,679.80 625.35,679.55 625.51,676.91 C625.69,673.77 622.97,670.49 620.81,671.26 C618.76,672.00 616.00,670.13 616.00,668.00 C616.00,666.21 613.10,663.80 611.29,664.10 C607.99,664.65 607.97,664.39 608.24,628.33 C608.49,593.52 608.55,592.66 610.50,592.40 C615.18,591.78 616.40,591.23 617.04,589.42 C617.42,588.36 617.53,586.98 617.29,586.35 C617.06,585.72 617.41,584.86 618.09,584.45 C618.93,583.93 619.06,584.13 618.52,585.10 C618.08,585.87 618.92,585.36 620.38,583.96 C621.84,582.56 623.22,580.46 623.45,579.28 C623.94,576.69 627.21,573.24 628.69,573.73 C629.78,574.09 630.98,570.79 631.65,565.59 C632.16,561.59 633.73,560.00 637.16,560.00 C640.04,560.00 640.07,559.94 639.68,555.05 C639.25,549.62 641.29,544.00 643.70,544.00 C645.81,544.00 648.35,541.28 646.74,540.74 C645.06,540.18 648.69,529.37 651.41,526.84 C652.49,525.83 652.95,524.99 652.44,524.97 C651.92,524.95 652.27,524.49 653.20,523.95 C654.57,523.15 654.90,521.51 654.86,515.73 C654.80,506.26 655.49,497.64 656.43,496.12 C657.34,494.64 656.45,492.00 655.03,492.00 C654.93,492.00 654.83,492.04 654.73,492.11 C654.84,491.55 654.94,491.06 655.02,490.67 C655.46,488.51 655.83,484.00 655.96,479.75 ZM 0.14 439.25 L 0.00 0.00 L 215.75 0.11 C313.84,0.16 367.97,0.24 396.29,0.47 C395.00,0.60 394.34,0.75 394.45,0.92 C394.76,1.43 394.31,2.55 393.44,3.42 C392.57,4.29 392.15,5.00 392.50,5.00 C392.85,5.00 392.50,5.64 391.72,6.42 C390.78,7.36 387.16,8.00 380.93,8.30 C373.30,8.68 371.36,9.10 370.52,10.55 C368.31,14.38 366.13,15.71 360.98,16.32 C355.90,16.92 353.66,18.33 354.35,20.49 C354.83,22.02 352.38,24.00 350.01,24.00 C346.59,24.00 344.00,25.88 344.00,28.37 C344.00,29.63 344.29,30.96 344.65,31.32 C344.86,31.53 345.53,31.39 346.48,30.99 C344.56,32.15 342.92,33.25 341.94,34.01 L 343.86 32.22 L 340.93 31.64 C339.32,31.31 336.92,31.46 335.60,31.96 C334.28,32.46 333.00,32.66 332.74,32.41 C332.06,31.72 326.96,33.82 327.11,34.73 C327.18,35.15 327.18,36.54 327.12,37.82 C327.02,39.68 326.60,40.01 324.95,39.48 C322.39,38.67 320.00,40.56 320.00,43.39 C320.00,44.91 318.67,46.27 315.49,48.00 C313.02,49.36 310.75,51.22 310.46,52.14 C309.87,54.00 302.46,57.46 299.81,57.11 C297.92,56.87 296.02,62.19 296.01,67.75 C296.00,69.54 296.18,71.00 296.39,71.00 C296.55,71.00 299.06,68.65 302.52,65.29 C300.23,67.89 297.45,71.24 294.78,74.57 C293.85,75.72 292.94,76.86 292.07,77.97 C293.80,75.52 294.93,73.59 294.72,73.39 C294.47,73.14 293.32,72.75 292.16,72.53 C290.07,72.13 288.74,73.27 288.36,75.80 C288.04,77.92 285.88,80.00 284.00,80.00 C281.95,80.00 279.80,82.28 280.06,84.18 C280.50,87.44 279.93,94.98 279.25,94.84 C278.43,94.67 275.36,95.69 273.00,96.93 C272.04,97.43 271.61,98.82 271.82,100.76 C272.32,105.63 270.25,111.60 267.42,113.46 C265.07,115.00 264.88,115.66 265.04,121.82 C265.14,125.49 264.97,130.67 264.66,133.31 C264.36,135.96 264.37,138.79 264.68,139.61 C265.28,141.16 265.81,140.98 266.41,138.89 C266.21,140.40 266.01,142.33 265.80,144.51 C265.47,145.17 265.00,149.92 264.71,155.78 C264.53,159.29 264.45,161.88 264.47,163.84 C264.08,172.83 264.36,177.80 265.50,187.00 C265.78,189.28 266.07,191.51 266.36,193.66 C266.92,198.52 267.71,203.90 268.71,209.42 C269.04,211.36 269.36,213.22 269.69,214.98 C268.44,208.81 267.85,204.87 266.91,198.20 C265.88,190.81 265.61,190.11 264.41,191.82 C263.40,193.27 263.28,195.17 263.94,199.62 C264.84,205.66 264.96,207.14 265.02,212.75 C265.04,214.54 265.50,216.00 266.03,216.00 C267.47,216.00 267.14,222.12 265.55,225.00 C263.96,227.86 265.07,230.00 268.12,230.00 C269.41,230.00 270.00,230.72 270.00,232.30 C270.00,233.57 270.47,235.07 271.05,235.65 C271.88,236.48 272.89,246.45 272.99,254.69 C272.99,255.35 273.90,255.71 275.00,255.50 C276.10,255.29 277.06,255.65 277.14,256.31 C277.20,256.86 277.40,256.58 277.60,255.71 C278.04,260.62 278.22,266.02 278.42,274.00 C278.51,277.25 278.64,280.97 278.82,284.96 C278.49,280.67 277.75,278.04 276.88,278.58 C276.40,278.87 276.00,278.59 276.00,277.94 C276.00,277.06 275.62,277.07 274.50,278.00 C272.78,279.43 272.50,282.67 274.05,283.18 C274.62,283.37 275.31,285.77 275.59,288.52 C275.86,291.26 276.28,294.06 276.51,294.75 C276.75,295.44 277.40,296.00 277.97,296.00 C278.56,296.00 279.00,293.49 279.00,290.12 C279.00,289.65 279.00,289.18 278.99,288.73 C279.20,293.27 279.45,298.04 279.73,302.74 C279.57,301.81 279.28,301.17 278.87,300.92 C277.28,299.94 272.00,302.61 272.00,304.40 C272.00,306.03 274.44,308.23 275.29,307.37 C275.63,307.04 276.71,307.58 277.70,308.57 C279.43,310.31 279.51,310.22 279.81,306.04 C279.84,305.69 279.86,305.36 279.86,305.03 C280.09,308.79 280.32,312.47 280.56,315.92 C280.47,315.69 280.38,315.66 280.29,315.89 C279.00,319.15 276.71,320.83 274.60,320.05 C273.45,319.62 272.48,318.87 272.46,318.39 C272.37,315.90 269.71,313.00 267.54,313.00 C264.31,313.00 256.00,320.95 256.49,323.57 C256.68,324.63 256.90,325.95 256.96,326.50 C257.03,327.04 257.71,326.31 258.50,324.88 C257.88,326.23 257.98,328.01 258.37,332.34 C258.60,334.86 259.05,337.75 259.63,340.63 C259.10,338.19 258.66,335.86 258.44,334.08 C257.95,330.15 257.52,329.10 256.87,330.26 C255.93,331.95 256.37,344.65 257.54,349.28 C257.94,350.90 257.75,352.60 257.06,353.42 C256.14,354.53 256.68,355.62 259.70,358.74 C261.79,360.90 263.60,363.53 263.72,364.58 C263.84,365.64 264.17,368.98 264.46,372.00 C264.75,375.02 265.39,379.45 265.88,381.84 C266.37,384.23 266.54,387.04 266.27,388.08 C265.96,389.26 266.40,390.22 267.42,390.61 C269.08,391.24 272.28,396.38 271.51,397.16 C271.28,397.39 271.56,400.48 272.13,404.04 C273.54,412.80 273.72,414.60 273.87,421.17 C273.97,425.63 274.53,427.48 276.46,429.78 C277.82,431.39 279.23,434.57 279.59,436.85 C279.96,439.13 280.67,441.00 281.17,441.00 C281.67,441.00 281.95,442.16 281.79,443.57 C281.55,445.74 282.08,446.35 285.21,447.44 C287.26,448.16 289.10,448.56 289.32,448.35 C289.54,448.13 290.28,448.64 290.98,449.48 C292.64,451.47 294.89,451.41 297.22,449.30 C298.77,447.90 299.62,447.79 302.05,448.71 C304.76,449.74 304.99,449.71 305.00,447.38 C305.26,449.03 305.53,451.09 305.79,453.29 C305.64,453.13 305.39,453.43 304.97,454.15 C304.44,455.06 304.29,457.20 304.63,458.90 C304.97,460.61 305.70,462.00 306.24,462.00 C306.41,462.00 306.54,461.91 306.63,461.74 C306.72,462.78 306.79,463.77 306.85,464.69 C306.66,464.00 306.24,464.33 305.32,465.25 C303.94,466.63 303.85,467.37 304.80,469.46 C306.42,473.01 306.98,472.64 307.00,467.98 C307.00,468.18 307.01,468.37 307.01,468.55 C307.01,471.81 307.79,479.68 308.79,487.67 C308.84,488.22 308.89,488.78 308.95,489.34 C308.71,487.63 308.49,485.91 308.28,484.21 C307.19,475.38 305.49,476.35 305.56,485.76 C305.65,496.31 307.14,512.03 308.00,511.50 C308.39,511.26 309.56,511.71 310.60,512.50 C311.98,513.54 312.93,514.00 313.34,513.88 C313.44,514.31 313.51,514.65 313.57,514.90 C313.86,516.23 314.54,518.14 315.08,519.15 C315.63,520.17 315.82,521.00 315.52,521.00 C315.22,521.00 315.63,522.58 316.44,524.50 C315.63,522.58 314.98,520.67 314.98,520.25 C314.98,518.52 313.80,516.00 313.00,516.00 C310.65,516.00 311.72,532.59 314.19,534.39 C316.15,535.83 319.81,536.17 319.99,534.98 C320.46,536.08 320.97,537.25 321.51,538.42 C321.99,539.62 322.49,540.83 322.99,541.99 C321.74,539.40 321.25,539.30 320.42,540.44 C318.85,542.59 320.39,548.73 323.16,551.34 C324.55,552.65 324.95,553.96 324.53,555.85 C324.10,557.83 324.47,558.90 325.97,559.98 C327.30,560.94 328.00,562.57 328.00,564.72 C328.00,567.68 328.28,568.00 330.94,568.00 C334.27,568.00 335.33,569.21 335.52,573.21 C335.59,574.73 335.84,576.10 336.07,576.24 C336.31,576.38 337.81,577.17 339.41,578.00 C341.35,579.00 342.77,580.84 343.64,583.50 C345.94,590.54 346.20,591.00 347.96,591.00 C348.91,591.00 350.39,591.79 351.25,592.75 C352.59,594.25 352.87,599.42 353.16,628.75 C353.38,651.14 353.15,663.00 352.50,663.01 C351.95,663.01 349.81,663.48 347.75,664.05 C344.88,664.85 343.99,665.61 343.97,667.30 C343.93,669.79 341.82,673.00 340.21,673.00 C339.63,673.00 338.32,674.05 337.30,675.34 C334.77,678.56 332.21,679.77 326.96,680.21 C321.29,680.68 320.40,681.26 319.65,684.98 C319.23,687.10 318.47,688.00 317.11,688.00 C313.91,688.00 312.00,689.11 312.00,690.95 C312.00,693.93 308.74,695.78 302.50,696.35 C299.20,696.65 296.36,696.92 296.19,696.95 C296.02,696.98 296.15,697.43 296.48,697.96 C296.80,698.49 296.19,699.81 295.12,700.88 C294.05,701.95 293.36,703.02 293.59,703.25 C293.82,703.49 292.32,703.74 290.25,703.82 C283.00,704.08 281.31,704.89 279.84,708.77 L 278.44 712.43 L 269.72 712.13 L 261.00 711.83 L 259.25 714.89 C256.80,719.19 251.89,720.80 239.00,721.54 C235.98,721.71 233.16,721.88 232.75,721.92 C231.51,722.05 231.91,724.80 233.25,725.34 C234.19,725.72 234.13,726.11 233.00,726.91 C231.55,727.93 229.47,728.18 222.00,728.21 C220.07,728.22 218.05,728.50 217.50,728.83 C216.95,729.17 215.87,729.54 215.10,729.66 C214.33,729.77 213.39,730.37 213.01,730.99 C212.63,731.60 211.91,731.97 211.41,731.80 C210.91,731.64 210.50,731.87 210.50,732.33 C210.50,732.79 208.48,734.12 206.00,735.30 C202.59,736.92 199.56,737.45 193.50,737.47 C186.18,737.50 185.42,737.69 184.51,739.75 C183.97,740.99 183.16,742.00 182.70,742.00 C182.25,742.00 182.12,742.38 182.40,742.84 C182.69,743.30 181.32,743.74 179.37,743.81 C177.41,743.89 173.27,744.38 170.16,744.92 C167.05,745.45 163.38,745.68 162.00,745.43 C160.62,745.18 158.04,744.71 156.25,744.38 C152.95,743.76 152.55,744.20 152.92,748.10 C153.21,751.12 150.31,752.19 141.87,752.19 C137.36,752.19 133.09,752.41 132.38,752.68 C131.67,752.96 130.16,754.76 129.01,756.70 C127.27,759.65 126.51,760.14 124.27,759.71 C122.80,759.43 118.57,760.00 114.87,760.97 C111.17,761.94 107.76,762.36 107.31,761.91 C106.21,760.81 104.85,761.88 102.85,765.44 C101.22,768.35 101.11,768.38 92.02,768.44 C84.01,768.49 82.66,768.75 81.45,770.50 C80.69,771.60 79.59,773.06 78.99,773.75 C78.40,774.44 78.28,775.05 78.71,775.11 C79.63,775.25 72.99,776.86 68.17,777.68 C66.09,778.03 64.48,779.04 63.87,780.39 C62.71,782.93 57.37,784.83 52.47,784.44 C49.43,784.20 48.92,784.50 48.36,786.83 C47.46,790.59 46.12,792.00 43.43,792.00 C41.94,792.00 40.13,793.27 38.43,795.50 C36.96,797.42 35.20,799.00 34.50,799.00 C33.81,799.00 32.72,799.63 32.08,800.41 C31.43,801.18 29.84,801.70 28.54,801.55 C26.56,801.34 26.06,801.85 25.54,804.65 C25.14,806.80 24.30,808.05 23.20,808.15 C22.27,808.24 21.05,808.41 20.50,808.54 C19.95,808.66 18.94,808.82 18.25,808.88 C16.79,809.02 16.53,813.00 17.99,813.00 C18.53,813.00 18.08,814.46 16.99,816.25 C15.90,818.04 15.01,820.27 15.00,821.22 C15.00,822.32 13.83,823.25 11.75,823.78 C8.53,824.62 8.50,824.69 8.18,831.41 C8.01,835.15 8.25,837.96 8.73,837.67 C9.01,837.50 9.84,836.19 10.90,834.31 C9.44,837.35 8.00,840.82 6.89,844.02 C4.97,848.97 3.40,853.74 2.56,857.28 C3.14,854.76 4.03,851.69 5.01,848.97 C7.04,843.34 7.70,840.30 7.01,839.61 C6.33,838.93 6.00,838.94 6.00,839.66 C6.00,840.24 4.76,840.67 3.25,840.61 L 0.78 840.51 C0.44,782.03 0.20,637.57 0.14,439.25 ZM 275.22 273.73 C276.39,274.98 277.50,276.00 277.67,276.00 C277.85,276.00 278.00,274.50 278.00,272.67 C278.00,270.16 277.56,269.33 276.25,269.32 C273.41,269.29 272.94,271.30 275.22,273.73 ZM 694.15 198.50 C694.16,203.11 694.24,203.28 695.19,200.66 C695.91,198.70 695.90,197.15 695.18,195.66 C694.31,193.85 694.14,194.31 694.15,198.50 ZM 653.95 496.12 C653.63,501.16 651.90,509.06 649.41,517.54 L 649.42 517.50 C650.42,513.80 651.28,510.12 651.96,506.50 C652.61,503.05 653.34,499.24 653.95,496.12 ZM 492.36 0.67 C492.21,0.87 492.22,1.13 492.34,1.45 C492.71,2.42 492.42,2.71 491.45,2.34 C490.65,2.04 490.00,1.38 490.00,0.89 C490.00,0.82 489.85,0.76 489.56,0.69 C490.47,0.69 491.40,0.68 492.36,0.67 ZM 306.00 51.00 C306.00,51.55 306.45,52.00 307.00,52.00 C307.55,52.00 308.00,51.55 308.00,51.00 C308.00,50.45 307.55,50.00 307.00,50.00 C306.45,50.00 306.00,50.45 306.00,51.00 ZM 353.00 27.19 C353.63,26.75 354.26,26.29 354.88,25.82 C356.20,24.82 357.67,24.00 358.15,24.00 C358.28,24.00 358.53,23.92 358.87,23.78 C357.20,24.75 355.10,25.97 353.00,27.19 ZM 258.87 324.23 C260.83,320.96 263.45,319.62 266.30,320.06 C264.22,319.87 262.21,320.70 260.32,322.59 C259.69,323.22 259.22,323.72 258.87,324.23 ZM 322.23 47.58 C327.99,43.02 333.25,39.35 335.91,38.22 C332.51,40.08 327.44,43.58 322.23,47.58 ZM 363.86 20.98 C367.27,19.00 373.69,15.98 379.42,13.57 C376.12,15.08 372.15,16.89 370.00,17.87 C368.47,18.57 366.14,19.76 363.86,20.98 ZM 693.82 167.13 C693.80,165.48 693.67,164.31 693.44,163.37 C693.13,160.61 692.76,157.91 692.32,155.28 C693.35,160.78 693.99,165.74 694.00,169.22 C693.94,168.52 693.88,167.82 693.82,167.13 ZM 318.39 530.79 C317.61,529.24 317.17,528.00 317.42,528.00 C317.68,528.00 317.24,526.43 316.44,524.52 C317.25,526.45 317.90,528.26 317.89,528.54 C317.88,528.98 318.06,529.77 318.39,530.79 ZM 14.01 828.47 C17.44,822.21 22.90,815.65 30.00,809.14 C23.09,815.53 17.68,822.04 14.01,828.47 ZM 960.61 864.52 C960.38,862.24 959.70,858.60 958.88,855.01 L 958.85 854.86 C959.71,858.55 960.45,862.36 960.72,864.77 C960.82,865.56 960.90,866.21 960.97,866.72 C960.96,866.96 960.95,867.18 960.94,867.38 C960.83,866.52 960.72,865.55 960.61,864.52 ZM 337.80 37.27 C338.89,36.60 340.11,35.70 341.05,34.84 C341.02,34.89 341.00,34.94 341.00,34.97 C341.00,35.37 339.60,36.36 337.80,37.27 ZM 670.99 446.50 C669.67,447.46 668.27,448.00 666.95,448.00 C666.73,448.00 666.37,447.83 665.92,447.53 C666.93,448.04 667.87,447.94 669.29,447.33 C669.82,447.15 670.33,446.90 670.84,446.58 L 670.91 446.55 C670.93,446.53 670.96,446.52 670.99,446.50 ZM 282.45 337.86 C282.45,337.55 282.39,336.72 282.27,335.59 C282.36,336.19 282.44,336.60 282.52,336.80 C282.88,337.83 282.81,338.13 282.45,337.86 ZM 687.62 135.89 C687.56,135.70 687.50,135.51 687.44,135.32 C685.59,129.29 683.69,124.16 682.19,121.21 C683.95,124.66 685.86,129.96 687.62,135.89 ZM 830.24 759.71 C831.38,760.10 832.45,760.40 833.00,760.46 C833.27,760.49 833.67,760.57 834.19,760.70 C833.94,760.65 833.68,760.62 833.43,760.58 C833.25,760.55 833.10,760.53 832.98,760.52 C832.15,760.46 831.02,760.15 830.48,759.84 C830.42,759.80 830.34,759.76 830.24,759.71 ZM 787.91 747.24 C790.15,747.85 793.15,748.69 796.00,749.51 C797.17,749.85 798.58,750.25 800.13,750.70 C796.42,749.66 792.12,748.45 787.91,747.24 ZM 270.66 118.79 C271.53,115.61 272.37,113.37 273.42,111.25 C272.54,113.03 271.51,115.89 270.66,118.79 ZM 701.52 322.42 C700.86,321.26 700.06,320.58 698.91,320.29 C700.22,320.57 701.06,321.28 701.52,322.42 ZM 388.98 9.99 C389.15,9.94 389.31,9.90 389.46,9.86 C390.35,9.65 391.25,9.39 392.04,9.12 C390.89,9.60 389.68,9.95 388.98,9.99 ZM 304.16 443.78 C303.53,443.51 302.46,444.11 300.78,445.53 C298.82,447.18 296.94,448.00 295.07,448.00 C296.96,447.99 298.88,447.13 300.92,445.41 C302.74,443.88 303.72,443.37 304.16,443.78 ZM 682.54 413.21 C682.26,415.38 681.82,417.92 681.29,420.57 C681.73,418.24 682.15,415.79 682.54,413.21 ZM 846.83 764.41 C846.68,764.36 846.53,764.31 846.38,764.27 L 846.38 764.27 C842.96,763.19 839.82,762.25 837.40,761.57 C837.32,761.54 837.23,761.50 837.13,761.47 C840.22,762.34 844.56,763.67 849.15,765.14 C848.37,764.89 847.59,764.65 846.84,764.41 ZM 306.31 458.24 C306.13,457.16 306.00,455.95 305.98,455.05 C306.10,456.11 306.21,457.18 306.31,458.24 ZM 280.35 96.22 C278.96,98.73 277.81,100.88 277.04,102.42 C277.83,100.82 278.97,98.64 280.25,96.38 ZM 281.78 331.36 C281.58,329.59 281.39,327.37 281.25,325.22 C281.43,327.56 281.61,329.63 281.78,331.36 ZM 683.46 327.10 C683.42,327.54 683.39,327.96 683.36,328.34 C683.39,327.84 683.44,327.29 683.48,326.68 C683.50,326.46 683.52,326.23 683.54,326.00 C683.60,325.22 683.66,324.43 683.72,323.65 C683.64,324.81 683.55,326.00 683.46,327.10 ZM 1.06 867.76 C1.48,866.31 1.85,863.53 1.90,861.40 C1.90,861.28 1.91,861.15 1.92,861.00 C1.91,861.15 1.90,861.30 1.90,861.43 C1.85,863.57 1.48,866.36 1.06,867.80 ZM 394.79 7.90 C395.24,7.69 396.03,7.43 397.11,7.12 C396.23,7.39 395.45,7.65 394.79,7.90 ZM 690.19 226.70 L 690.22 226.58 C689.82,228.58 689.42,230.46 689.05,232.00 C689.45,230.24 689.83,228.48 690.19,226.70 ZM 692.57 370.32 C691.64,373.46 690.78,376.40 689.99,379.14 C690.76,376.44 691.62,373.52 692.57,370.32 Z" fill="rgb(254,254,254)"/>
<path d="M 960.72 864.77 C960.30,861.08 958.81,854.10 957.41,849.27 C954.78,840.20 947.45,825.12 945.25,824.27 C944.56,824.00 944.00,823.37 944.00,822.85 C944.00,820.96 937.45,813.35 931.22,808.00 C927.70,804.97 924.07,801.78 923.16,800.91 C920.36,798.22 908.08,790.00 906.86,790.00 C906.23,790.00 902.77,788.14 899.17,785.87 C892.63,781.74 886.90,779.11 869.00,772.02 C860.09,768.49 836.32,760.86 833.00,760.46 C832.17,760.36 830.15,759.74 828.50,759.07 C826.85,758.40 820.78,756.53 815.00,754.91 C809.22,753.29 800.67,750.86 796.00,749.51 C791.33,748.16 786.26,746.77 784.74,746.42 C783.22,746.07 781.75,745.40 781.46,744.93 C780.96,744.12 797.88,744.41 803.00,745.31 C804.38,745.55 805.84,745.80 806.25,745.87 C806.66,745.94 807.00,746.88 807.00,747.96 C807.00,750.75 809.69,751.85 818.13,752.54 C822.18,752.87 825.95,753.18 826.50,753.23 C827.05,753.28 828.48,753.00 829.67,752.62 C831.29,752.09 831.99,752.39 832.43,753.78 C832.76,754.81 834.70,756.56 836.76,757.67 C840.72,759.82 854.25,762.58 855.89,761.57 C857.41,760.63 862.14,763.20 861.58,764.66 C860.88,766.49 864.67,768.28 870.00,768.65 C877.36,769.15 878.36,769.55 880.05,772.59 C881.47,775.16 882.41,775.59 888.08,776.30 C892.66,776.87 895.21,777.77 897.00,779.44 C900.38,782.59 905.22,784.94 909.21,785.35 C911.40,785.57 912.83,786.41 913.49,787.84 C914.03,789.03 914.98,790.00 915.60,790.00 C916.22,790.00 917.81,790.85 919.12,791.88 C920.43,792.91 922.41,793.93 923.50,794.14 C924.60,794.35 925.52,794.97 925.54,795.51 C925.63,798.26 928.40,801.03 932.02,802.00 C934.75,802.74 936.00,803.63 936.00,804.84 C936.00,807.10 937.88,808.98 939.51,808.36 C940.86,807.84 944.98,812.91 945.03,815.15 C945.07,816.85 947.52,820.15 948.22,819.45 C948.78,818.88 953.00,827.31 953.00,828.99 C953.00,829.55 954.05,830.00 955.34,830.00 C957.77,830.00 960.00,833.33 960.00,836.96 C960.00,837.99 960.46,838.99 961.03,839.18 C961.69,839.40 961.95,845.22 961.78,855.51 C961.54,869.12 961.38,870.50 960.72,864.77 ZM 0.34 855.50 L 0.50 840.50 L 3.25 840.61 C4.76,840.67 6.00,840.24 6.00,839.66 C6.00,838.94 6.33,838.93 7.01,839.61 C7.70,840.30 7.04,843.34 5.01,848.97 C3.36,853.55 1.96,859.15 1.90,861.40 C1.85,863.66 1.43,866.62 0.99,868.00 C0.50,869.48 0.24,864.37 0.34,855.50 ZM 8.18 831.41 C8.50,824.69 8.53,824.62 11.75,823.78 C13.83,823.25 15.00,822.32 15.00,821.22 C15.01,820.27 15.90,818.04 16.99,816.25 C18.08,814.46 18.53,813.00 17.99,813.00 C16.53,813.00 16.79,809.02 18.25,808.88 C18.94,808.82 19.95,808.66 20.50,808.54 C21.05,808.41 22.27,808.24 23.20,808.15 C24.30,808.05 25.14,806.80 25.54,804.65 C26.06,801.85 26.56,801.34 28.54,801.55 C29.84,801.70 31.43,801.18 32.08,800.41 C32.72,799.63 33.81,799.00 34.50,799.00 C35.20,799.00 36.96,797.42 38.43,795.50 C40.13,793.27 41.94,792.00 43.43,792.00 C46.12,792.00 47.46,790.59 48.36,786.83 C48.92,784.50 49.43,784.20 52.47,784.44 C57.37,784.83 62.71,782.93 63.87,780.39 C64.48,779.04 66.09,778.03 68.17,777.68 C72.99,776.86 79.63,775.25 78.71,775.11 C78.28,775.05 78.40,774.44 78.99,773.75 C79.59,773.06 80.69,771.60 81.45,770.50 C82.66,768.75 84.01,768.49 92.02,768.44 C101.11,768.38 101.22,768.35 102.85,765.44 C104.85,761.88 106.21,760.81 107.31,761.91 C107.76,762.36 111.17,761.94 114.87,760.97 C118.57,760.00 122.80,759.43 124.27,759.71 C126.51,760.14 127.27,759.65 129.01,756.70 C130.16,754.76 131.67,752.96 132.38,752.68 C133.09,752.41 137.36,752.19 141.87,752.19 C150.31,752.19 153.21,751.12 152.92,748.10 C152.55,744.20 152.95,743.76 156.25,744.38 C158.04,744.71 160.62,745.18 162.00,745.43 C163.38,745.68 167.05,745.45 170.16,744.92 C173.27,744.38 177.41,743.89 179.37,743.81 C181.32,743.74 182.69,743.30 182.40,742.84 C182.12,742.38 182.25,742.00 182.70,742.00 C183.16,742.00 183.97,740.99 184.51,739.75 C185.42,737.69 186.18,737.50 193.50,737.47 C199.56,737.45 202.59,736.92 206.00,735.30 C208.48,734.12 210.50,732.79 210.50,732.33 C210.50,731.87 210.91,731.64 211.41,731.80 C211.91,731.97 212.63,731.60 213.01,730.99 C213.39,730.37 214.33,729.77 215.10,729.66 C215.87,729.54 216.95,729.17 217.50,728.83 C218.05,728.50 220.07,728.22 222.00,728.21 C229.47,728.18 231.55,727.93 233.00,726.91 C234.13,726.11 234.19,725.72 233.25,725.34 C231.91,724.80 231.51,722.05 232.75,721.92 C233.16,721.88 235.98,721.71 239.00,721.54 C251.89,720.80 256.80,719.19 259.25,714.89 L 261.00 711.83 L 269.72 712.13 L 278.44 712.43 L 279.84 708.77 C281.31,704.89 283.00,704.08 290.25,703.82 C292.32,703.74 293.82,703.49 293.59,703.25 C293.36,703.02 294.05,701.95 295.12,700.88 C296.19,699.81 296.80,698.49 296.48,697.96 C296.15,697.43 296.02,696.98 296.19,696.95 C296.36,696.92 299.20,696.65 302.50,696.35 C308.74,695.78 312.00,693.93 312.00,690.95 C312.00,689.11 313.91,688.00 317.11,688.00 C318.47,688.00 319.23,687.10 319.65,684.98 C320.40,681.26 321.29,680.68 326.96,680.21 C332.21,679.77 334.77,678.56 337.30,675.34 C338.32,674.05 339.63,673.00 340.21,673.00 C341.82,673.00 343.93,669.79 343.97,667.30 C343.99,665.61 344.88,664.85 347.75,664.05 C349.81,663.48 351.95,663.01 352.50,663.01 C353.15,663.00 353.38,651.14 353.16,628.75 C352.87,599.42 352.59,594.25 351.25,592.75 C350.39,591.79 348.91,591.00 347.96,591.00 C346.20,591.00 345.94,590.54 343.64,583.50 C342.77,580.84 341.35,579.00 339.41,578.00 C337.81,577.17 336.31,576.38 336.07,576.24 C335.84,576.10 335.59,574.73 335.52,573.21 C335.33,569.21 334.27,568.00 330.94,568.00 C328.28,568.00 328.00,567.68 328.00,564.72 C328.00,562.57 327.30,560.94 325.97,559.98 C324.47,558.90 324.10,557.83 324.53,555.85 C324.95,553.96 324.55,552.65 323.16,551.34 C320.39,548.73 318.85,542.59 320.42,540.44 C321.48,538.99 321.98,539.55 324.21,544.69 C325.62,547.95 329.75,554.97 333.39,560.30 C337.02,565.62 340.00,570.37 340.00,570.85 C340.00,571.33 341.58,573.24 343.51,575.11 C345.45,576.97 348.85,580.77 351.08,583.54 L 355.14 588.57 L 355.06 627.54 L 354.99 666.50 L 352.24 668.80 C350.74,670.07 347.13,673.14 344.23,675.64 C335.84,682.85 322.37,691.50 309.00,698.29 C304.88,700.39 299.02,703.45 296.00,705.09 C287.28,709.83 273.35,715.86 262.50,719.57 C257.00,721.46 251.60,723.43 250.50,723.95 C249.40,724.47 242.65,726.75 235.50,729.02 C228.35,731.28 217.55,734.85 211.50,736.95 C200.43,740.80 198.37,741.37 189.86,742.97 C187.31,743.45 184.38,744.33 183.36,744.92 C181.22,746.15 166.28,750.40 148.00,754.97 C133.50,758.60 118.08,763.32 108.50,767.06 C107.40,767.49 103.80,768.75 100.50,769.85 C84.15,775.33 79.07,777.42 68.23,783.09 C41.47,797.10 21.15,814.36 13.37,829.69 C11.29,833.78 9.20,837.37 8.73,837.67 C8.25,837.96 8.01,835.15 8.18,831.41 ZM 769.50 742.00 C766.20,741.07 763.17,740.22 762.76,740.12 C762.35,740.02 761.45,739.78 760.76,739.57 C760.07,739.36 754.55,737.75 748.50,735.99 C729.62,730.49 718.35,726.68 701.53,720.08 C694.40,717.29 687.76,715.00 686.78,715.00 C685.80,715.00 685.00,714.55 685.00,714.00 C685.00,713.45 683.91,713.00 682.58,713.00 C681.25,713.00 680.02,712.60 679.83,712.12 C679.65,711.63 672.11,707.54 663.09,703.03 C643.34,693.16 637.50,689.58 620.25,676.76 L 607.00 666.91 L 607.00 628.53 L 607.00 590.15 L 609.77 587.33 C619.83,577.05 632.94,558.11 639.37,544.58 C646.75,529.05 654.00,504.28 654.00,494.59 C654.00,493.17 654.46,492.00 655.03,492.00 C656.45,492.00 657.34,494.64 656.43,496.12 C655.49,497.64 654.80,506.26 654.86,515.73 C654.90,521.51 654.57,523.15 653.20,523.95 C652.27,524.49 651.92,524.95 652.44,524.97 C652.95,524.99 652.49,525.83 651.41,526.84 C648.69,529.37 645.06,540.18 646.74,540.74 C648.35,541.28 645.81,544.00 643.70,544.00 C641.29,544.00 639.25,549.62 639.68,555.05 C640.07,559.94 640.04,560.00 637.16,560.00 C633.73,560.00 632.16,561.59 631.65,565.59 C630.98,570.79 629.78,574.09 628.69,573.73 C627.21,573.24 623.94,576.69 623.45,579.28 C623.22,580.46 621.84,582.56 620.38,583.96 C618.92,585.36 618.08,585.87 618.52,585.10 C619.06,584.13 618.93,583.93 618.09,584.45 C617.41,584.86 617.06,585.72 617.29,586.35 C617.53,586.98 617.42,588.36 617.04,589.42 C616.40,591.23 615.18,591.78 610.50,592.40 C608.55,592.66 608.49,593.52 608.24,628.33 C607.97,664.39 607.99,664.65 611.29,664.10 C613.10,663.80 616.00,666.21 616.00,668.00 C616.00,670.13 618.76,672.00 620.81,671.26 C622.97,670.49 625.69,673.77 625.51,676.91 C625.35,679.55 625.62,679.80 628.63,679.80 C632.26,679.80 639.49,682.92 639.52,684.50 C639.55,686.45 640.99,687.75 643.23,687.82 C653.04,688.15 656.32,689.66 654.28,692.93 C653.27,694.54 653.48,694.95 655.80,695.85 C657.29,696.43 659.62,697.04 660.99,697.20 C662.55,697.39 663.97,698.53 664.80,700.25 C665.93,702.62 667.53,703.49 670.14,703.16 C670.49,703.11 672.29,703.52 674.14,704.05 C677.95,705.16 682.89,706.20 684.75,706.28 C685.44,706.31 686.00,707.33 686.00,708.56 C686.00,711.04 687.29,711.55 696.33,712.61 C700.74,713.13 702.34,713.78 703.20,715.39 C704.86,718.50 706.86,719.66 710.89,719.86 C722.91,720.46 724.32,720.72 725.66,722.58 C729.19,727.50 730.02,728.00 734.74,728.10 C747.89,728.37 750.32,729.17 751.42,733.54 C751.76,734.88 752.36,735.91 752.77,735.82 C753.17,735.72 757.55,736.04 762.50,736.51 C767.45,736.99 772.04,737.28 772.70,737.16 C774.11,736.90 776.26,740.53 775.81,742.41 C775.56,743.44 774.28,743.36 769.50,742.00 ZM 314.19 534.39 C311.72,532.59 310.65,516.00 313.00,516.00 C313.80,516.00 314.98,518.52 314.98,520.25 C314.98,520.67 315.63,522.58 316.44,524.50 C317.24,526.43 317.68,528.00 317.42,528.00 C317.16,528.00 317.64,529.33 318.47,530.95 C319.31,532.57 320.00,534.35 320.00,534.89 C320.00,536.19 316.20,535.87 314.19,534.39 ZM 310.60 512.50 C309.56,511.71 308.39,511.26 308.00,511.50 C307.14,512.03 305.65,496.31 305.56,485.76 C305.49,476.35 307.19,475.38 308.28,484.21 C309.81,496.62 312.22,510.53 313.14,512.25 C314.26,514.36 313.19,514.46 310.60,512.50 ZM 656.00 472.50 C656.00,470.02 656.42,468.00 656.94,468.00 C657.45,468.00 657.64,466.54 657.35,464.75 C656.82,461.44 658.51,443.16 659.43,442.23 C659.71,441.95 661.26,443.14 662.87,444.86 C664.48,446.59 666.32,448.00 666.95,448.00 C670.19,448.00 673.86,444.76 675.84,440.14 C678.26,434.53 681.67,420.65 682.62,412.58 C683.06,408.83 683.64,407.31 684.51,407.64 C686.29,408.33 687.22,415.43 685.90,418.32 C685.08,420.11 685.10,421.31 685.95,422.90 C686.89,424.67 686.75,425.50 685.18,427.49 C684.13,428.84 683.04,429.71 682.77,429.44 C681.44,428.11 679.93,437.75 680.84,441.78 C682.05,447.16 680.37,449.34 675.64,448.58 C673.21,448.19 672.12,448.57 670.81,450.28 C669.28,452.28 668.82,452.37 665.88,451.26 C661.99,449.79 661.33,450.23 662.73,453.31 C663.38,454.73 663.44,456.25 662.89,457.23 C662.40,458.11 661.78,461.67 661.53,465.13 C661.00,472.35 659.37,477.00 657.38,477.00 C656.41,477.00 656.00,475.66 656.00,472.50 ZM 304.80 469.46 C303.85,467.37 303.94,466.63 305.32,465.25 C306.89,463.68 307.00,463.84 307.00,467.79 C307.00,472.63 306.44,473.06 304.80,469.46 ZM 304.63 458.90 C304.29,457.20 304.44,455.06 304.97,454.15 C305.78,452.77 305.95,452.91 305.98,455.00 C306.01,456.38 306.30,458.51 306.63,459.75 C306.96,460.99 306.79,462.00 306.24,462.00 C305.70,462.00 304.97,460.61 304.63,458.90 ZM 290.98 449.48 C290.28,448.64 289.54,448.13 289.32,448.35 C289.10,448.56 287.26,448.16 285.21,447.44 C282.08,446.35 281.55,445.74 281.79,443.57 C281.95,442.16 281.67,441.00 281.17,441.00 C280.67,441.00 279.96,439.13 279.59,436.85 C279.23,434.57 277.82,431.39 276.46,429.78 C274.53,427.48 273.97,425.63 273.87,421.17 C273.72,414.60 273.54,412.80 272.13,404.04 C271.56,400.48 271.28,397.39 271.51,397.16 C272.28,396.38 269.08,391.24 267.42,390.61 C266.40,390.22 265.96,389.26 266.27,388.08 C266.54,387.04 266.37,384.23 265.88,381.84 C265.39,379.45 264.75,375.02 264.46,372.00 C264.17,368.98 263.84,365.64 263.72,364.58 C263.60,363.53 261.79,360.90 259.70,358.74 C256.68,355.62 256.14,354.53 257.06,353.42 C257.75,352.60 257.94,350.90 257.54,349.28 C256.37,344.65 255.93,331.95 256.87,330.26 C257.52,329.10 257.95,330.15 258.44,334.08 C259.05,338.97 261.28,348.12 262.80,352.00 C263.12,352.83 263.43,353.95 263.49,354.50 C263.55,355.05 264.37,358.08 265.32,361.24 C270.37,378.10 275.35,398.77 277.53,411.93 C280.86,432.07 283.12,438.87 288.34,444.40 C292.49,448.80 296.46,449.16 300.78,445.53 C304.09,442.75 305.00,443.09 305.00,447.08 C305.00,449.71 304.87,449.78 302.05,448.71 C299.62,447.79 298.77,447.90 297.22,449.30 C294.89,451.41 292.64,451.47 290.98,449.48 ZM 684.04 403.38 C683.98,400.36 687.90,385.64 694.93,362.50 C698.26,351.50 701.28,340.35 701.63,337.71 C702.01,334.85 702.72,333.07 703.38,333.30 C705.27,333.94 703.88,347.39 701.44,352.12 C700.62,353.70 700.24,355.00 700.59,355.00 C700.94,355.00 700.42,356.23 699.44,357.74 C697.04,361.40 695.73,367.13 695.50,375.00 C695.30,381.92 694.39,386.00 693.04,386.00 C692.59,386.00 691.96,386.65 691.66,387.45 C691.29,388.42 691.58,388.71 692.55,388.34 C693.35,388.04 694.00,388.28 694.00,388.89 C694.00,389.90 692.66,390.41 690.79,390.13 C690.39,390.07 689.51,391.93 688.81,394.26 C688.12,396.59 686.77,400.08 685.82,402.00 C684.46,404.74 684.07,405.04 684.04,403.38 ZM 281.29 336.75 C280.77,336.06 279.09,333.25 277.56,330.50 C271.20,319.09 262.99,316.62 258.56,324.78 C257.75,326.27 257.03,327.05 256.96,326.50 C256.90,325.95 256.68,324.63 256.49,323.57 C256.00,320.95 264.31,313.00 267.54,313.00 C269.71,313.00 272.37,315.90 272.46,318.39 C272.48,318.87 273.45,319.62 274.60,320.05 C276.71,320.83 279.00,319.15 280.29,315.89 C280.59,315.13 280.92,317.20 281.01,320.50 C281.10,323.80 281.49,329.09 281.89,332.25 C282.28,335.41 282.52,338.00 282.43,338.00 C282.33,338.00 281.82,337.44 281.29,336.75 ZM 683.46 327.10 C683.76,323.59 684.00,319.27 684.00,317.52 C684.00,315.35 684.48,314.33 685.50,314.33 C686.33,314.33 687.00,314.74 687.00,315.24 C687.00,316.85 689.83,319.09 690.50,318.01 C690.84,317.45 690.88,316.62 690.60,316.16 C690.31,315.69 691.70,314.81 693.69,314.20 C697.41,313.06 701.00,314.00 701.00,316.11 C701.00,316.68 701.67,317.82 702.50,318.64 C704.11,320.26 704.57,325.00 703.12,325.00 C702.63,325.00 702.00,324.10 701.71,323.01 C701.03,320.40 698.82,319.62 694.43,320.45 C691.66,320.97 690.30,322.06 688.19,325.45 C682.80,334.15 682.87,334.13 683.46,327.10 ZM 684.83 309.86 C684.65,308.56 684.66,305.57 684.85,303.21 C685.15,299.68 685.45,299.13 686.60,300.09 C688.40,301.58 688.39,306.02 686.58,309.50 L 685.17 312.23 L 684.83 309.86 ZM 277.70 308.57 C276.71,307.58 275.63,307.04 275.29,307.37 C274.44,308.23 272.00,306.03 272.00,304.40 C272.00,302.61 277.28,299.94 278.87,300.92 C279.66,301.41 280.01,303.33 279.81,306.04 C279.51,310.22 279.43,310.31 277.70,308.57 ZM 276.51 294.75 C276.28,294.06 275.86,291.26 275.59,288.52 C275.31,285.77 274.62,283.37 274.05,283.18 C272.50,282.67 272.78,279.43 274.50,278.00 C275.62,277.07 276.00,277.06 276.00,277.94 C276.00,278.59 276.40,278.87 276.88,278.58 C278.06,277.84 279.00,282.96 279.00,290.12 C279.00,293.49 278.56,296.00 277.97,296.00 C277.40,296.00 276.75,295.44 276.51,294.75 ZM 686.00 282.55 C686.00,278.76 686.30,275.97 686.67,276.33 C687.03,276.70 687.42,277.79 687.52,278.75 C687.63,279.71 688.06,281.78 688.49,283.33 C689.05,285.40 688.82,286.61 687.63,287.80 C686.12,289.31 686.00,288.91 686.00,282.55 ZM 275.22 273.73 C272.94,271.30 273.41,269.29 276.25,269.32 C277.56,269.33 278.00,270.16 278.00,272.67 C278.00,274.50 277.85,276.00 277.67,276.00 C277.50,276.00 276.39,274.98 275.22,273.73 ZM 277.14 256.31 C277.06,255.65 276.10,255.29 275.00,255.50 C273.90,255.71 272.99,255.35 272.99,254.69 C272.89,246.45 271.88,236.48 271.05,235.65 C270.47,235.07 270.00,233.57 270.00,232.30 C270.00,230.72 269.41,230.00 268.12,230.00 C265.07,230.00 263.96,227.86 265.55,225.00 C267.14,222.12 267.47,216.00 266.03,216.00 C265.50,216.00 265.04,214.54 265.02,212.75 C264.96,207.14 264.84,205.66 263.94,199.62 C263.28,195.17 263.40,193.27 264.41,191.82 C265.61,190.11 265.88,190.81 266.91,198.20 C268.70,210.95 269.25,213.72 275.50,241.17 C276.96,247.59 277.96,253.89 277.72,255.17 C277.47,256.45 277.21,256.96 277.14,256.31 ZM 687.01 242.50 C687.01,241.40 687.92,236.74 689.02,232.15 C690.12,227.55 691.56,219.79 692.23,214.89 C693.82,203.23 695.67,203.52 696.07,215.50 C696.15,218.06 693.73,227.60 692.75,228.58 C691.63,229.70 691.84,232.21 693.00,231.50 C693.58,231.14 693.97,232.06 693.92,233.69 C693.88,235.24 693.60,235.91 693.31,235.18 C692.95,234.27 692.39,234.58 691.52,236.18 C690.83,237.46 689.53,239.85 688.64,241.50 C687.35,243.88 687.01,244.09 687.01,242.50 ZM 694.15 198.50 C694.14,194.31 694.31,193.85 695.18,195.66 C695.90,197.15 695.91,198.70 695.19,200.66 C694.24,203.28 694.16,203.11 694.15,198.50 ZM 694.00 169.25 C693.98,158.11 687.44,131.50 682.19,121.21 C681.14,119.17 678.76,114.47 676.90,110.76 C675.03,107.05 673.16,104.01 672.75,104.01 C672.34,104.00 672.00,103.49 672.00,102.87 C672.00,101.85 668.11,96.02 663.31,89.83 C659.51,84.94 647.25,73.21 641.50,68.97 C635.22,64.34 619.86,56.00 617.61,56.00 C616.89,56.00 614.94,55.32 613.28,54.49 C610.03,52.87 593.16,49.00 589.34,49.00 C586.74,49.00 576.95,43.96 573.74,40.98 C571.74,39.11 568.39,37.24 549.50,27.49 C523.64,14.13 496.19,5.78 463.00,1.18 C457.39,0.40 458.80,0.26 473.25,0.14 C482.52,0.06 490.00,0.40 490.00,0.89 C490.00,1.38 490.65,2.04 491.45,2.34 C492.42,2.71 492.71,2.42 492.34,1.45 C491.90,0.29 492.92,-0.00 497.50,-0.00 C503.10,-0.00 503.20,0.05 502.59,2.49 C501.74,5.89 504.60,8.18 510.14,8.53 C518.32,9.04 524.97,9.86 525.99,10.49 C526.54,10.84 527.00,11.99 527.00,13.06 C527.00,14.13 527.34,15.03 527.75,15.07 C536.10,15.84 542.31,18.00 545.09,21.10 C546.98,23.22 548.60,24.00 551.09,24.01 C556.77,24.04 558.81,25.02 559.94,28.26 C560.53,29.95 561.29,31.05 561.63,30.71 C561.97,30.36 564.00,30.98 566.14,32.07 C568.98,33.52 570.52,33.79 571.86,33.07 C573.88,31.99 576.00,33.38 576.00,35.77 C576.00,37.59 578.02,39.42 580.50,39.85 C581.60,40.03 583.11,40.69 583.85,41.30 C584.59,41.91 586.45,42.32 587.97,42.20 C590.34,42.02 590.84,42.44 591.37,45.10 C591.91,47.81 592.31,48.14 594.44,47.60 C595.78,47.27 599.95,47.48 603.69,48.08 C610.60,49.19 614.04,49.64 617.31,49.87 C618.30,49.94 618.90,50.35 618.63,50.79 C618.36,51.22 619.57,52.20 621.32,52.96 C623.07,53.72 624.72,54.66 625.00,55.05 C625.28,55.45 627.53,56.02 630.00,56.33 C632.47,56.64 634.56,56.92 634.63,56.95 C634.71,56.98 635.01,57.95 635.32,59.10 C635.62,60.26 636.34,60.90 636.93,60.54 C637.52,60.18 638.00,60.57 638.00,61.42 C638.00,62.29 639.19,63.21 640.75,63.54 C642.26,63.86 644.51,64.33 645.75,64.58 C647.32,64.90 648.00,65.75 648.00,67.40 C648.00,69.73 650.00,72.21 651.64,71.92 C654.02,71.49 655.02,72.28 655.76,75.17 C656.43,77.75 657.33,78.56 660.54,79.48 C663.89,80.44 664.47,81.01 664.33,83.14 C664.22,84.94 664.97,86.14 666.94,87.31 C668.47,88.21 670.00,88.67 670.34,88.33 C670.99,87.68 671.45,88.77 672.44,93.25 C672.89,95.30 673.64,96.00 675.40,96.00 C678.77,96.00 679.79,97.75 680.07,104.00 C680.38,110.91 681.42,113.00 684.54,113.00 C686.77,113.00 687.00,113.40 687.02,117.25 C687.06,126.47 688.93,135.43 691.21,137.32 C694.20,139.81 694.44,141.25 695.29,161.50 C695.41,164.25 695.87,167.07 696.31,167.76 C697.27,169.24 696.28,173.00 694.93,173.00 C694.42,173.00 694.00,171.31 694.00,169.25 ZM 264.68 139.61 C264.37,138.79 264.36,135.96 264.66,133.31 C264.97,130.67 265.14,125.49 265.04,121.82 C264.88,115.66 265.07,115.00 267.42,113.46 C270.25,111.60 272.32,105.63 271.82,100.76 C271.61,98.82 272.04,97.43 273.00,96.93 C275.36,95.69 278.43,94.67 279.25,94.84 C279.93,94.98 280.50,87.44 280.06,84.18 C279.80,82.28 281.95,80.00 284.00,80.00 C285.88,80.00 288.04,77.92 288.36,75.80 C288.74,73.27 290.07,72.13 292.16,72.53 C293.32,72.75 294.47,73.14 294.72,73.39 C294.97,73.64 293.23,76.47 290.84,79.67 C286.01,86.15 286.18,85.89 280.25,96.38 C277.91,100.52 276.00,104.38 276.00,104.96 C276.00,105.54 274.84,108.37 273.42,111.25 C271.12,115.92 269.76,121.18 267.09,135.76 C266.21,140.61 265.50,141.74 264.68,139.61 ZM 296.01 67.75 C296.02,62.19 297.92,56.87 299.81,57.11 C302.46,57.46 309.87,54.00 310.46,52.14 C310.75,51.22 313.02,49.36 315.49,48.00 C318.67,46.27 320.00,44.91 320.00,43.39 C320.00,40.56 322.39,38.67 324.95,39.48 C326.60,40.01 327.02,39.68 327.12,37.82 C327.18,36.54 327.18,35.15 327.11,34.73 C326.96,33.82 332.06,31.72 332.74,32.41 C333.00,32.66 334.28,32.46 335.60,31.96 C336.92,31.46 339.32,31.31 340.93,31.64 L 343.86 32.22 L 341.18 34.72 C339.71,36.10 337.45,37.62 336.17,38.12 C331.30,39.99 316.11,51.88 306.64,61.25 C301.22,66.61 296.60,71.00 296.39,71.00 C296.18,71.00 296.00,69.54 296.01,67.75 ZM 306.00 51.00 C306.00,50.45 306.45,50.00 307.00,50.00 C307.55,50.00 308.00,50.45 308.00,51.00 C308.00,51.55 307.55,52.00 307.00,52.00 C306.45,52.00 306.00,51.55 306.00,51.00 ZM 344.65 31.32 C344.29,30.96 344.00,29.63 344.00,28.37 C344.00,25.88 346.59,24.00 350.01,24.00 C352.38,24.00 354.83,22.02 354.35,20.49 C353.66,18.33 355.90,16.92 360.98,16.32 C366.13,15.71 368.31,14.38 370.52,10.55 C371.36,9.10 373.30,8.68 380.93,8.30 C387.16,8.00 390.78,7.36 391.72,6.42 C392.50,5.64 392.85,5.00 392.50,5.00 C392.15,5.00 392.57,4.29 393.44,3.42 C394.31,2.55 394.76,1.43 394.45,0.92 C394.11,0.37 401.48,0.05 412.69,0.11 L 431.50 0.23 L 423.00 1.63 C411.45,3.53 395.73,7.08 394.46,8.08 C393.89,8.53 391.64,9.33 389.46,9.86 C384.40,11.10 368.15,18.25 362.99,21.51 C360.82,22.88 358.64,24.00 358.15,24.00 C357.67,24.00 356.20,24.82 354.88,25.82 C350.39,29.24 345.31,31.97 344.65,31.32 Z" fill="rgb(251,252,252)"/>
</g>
</svg>